<svg xmlns="http://www.w3.org/2000/svg" width="142.496" height="151.322" viewBox="0 0 142.496 151.322">
  <g id="Group_2337" data-name="Group 2337" transform="translate(-483 -3169)">
    <g id="monitor" transform="translate(493 3179)">
      <path id="Path_2847" data-name="Path 2847" d="M53.92,220.071H74.853a2.76,2.76,0,1,0,0-5.52H53.92a2.76,2.76,0,1,0,0,5.52Zm0,0" transform="translate(-37.039 -155.331)" fill="#f9e7b5"/>
      <path id="Path_2848" data-name="Path 2848" d="M53.92,268.075H76.693a2.76,2.76,0,1,0,0-5.52H53.92a2.76,2.76,0,1,0,0,5.52Zm0,0" transform="translate(-37.039 -190.085)" fill="#f9e7b5"/>
      <path id="Path_2849" data-name="Path 2849" d="M177.678,268.071a2.761,2.761,0,1,0-1.952-.809A2.768,2.768,0,0,0,177.678,268.071Zm0,0" transform="translate(-126.637 -190.082)" fill="#f9e7b5"/>
      <path id="Path_2850" data-name="Path 2850" d="M214.322,90.582a24.291,24.291,0,1,0-24.291-24.291A24.318,24.318,0,0,0,214.322,90.582Zm0-43.06a18.77,18.77,0,1,1-18.769,18.769A18.791,18.791,0,0,1,214.322,47.522Zm0,0" transform="translate(-137.579 -30.407)" fill="#f9e7b5"/>
      <path id="Path_2851" data-name="Path 2851" d="M129.759,75.664l-3.337-3.337V34.774a13.818,13.818,0,0,0-13.8-13.8h-3.241a35.879,35.879,0,0,0-65.271,0H13.8A13.818,13.818,0,0,0,0,34.774v69.559a13.817,13.817,0,0,0,13.8,13.8H49.4v6.631a13.815,13.815,0,0,0-13.532,13.8,2.76,2.76,0,0,0,2.76,2.76H87.774a2.76,2.76,0,0,0,2.76-2.76A13.815,13.815,0,0,0,77,124.766v-6.631H112.62a13.817,13.817,0,0,0,13.8-13.8V91.051a9.365,9.365,0,0,0,3.337-15.387ZM41.861,135.8Z" transform="translate(0)" fill="#f9e7b5"/>
      <path id="Path_2852" data-name="Path 2852" d="M270.8,90.528a6.908,6.908,0,0,1,6.9,6.9,2.76,2.76,0,1,0,5.52,0A12.434,12.434,0,0,0,270.8,85.008a2.76,2.76,0,0,0,0,5.52Zm0,0" transform="translate(-194.052 -61.544)" fill="#f9e7b5"/>
    </g>
    <g id="monitor-2" data-name="monitor" transform="translate(483 3169)">
      <path id="Path_2847-2" data-name="Path 2847" d="M53.92,220.071H74.853a2.76,2.76,0,1,0,0-5.52H53.92a2.76,2.76,0,1,0,0,5.52Zm0,0" transform="translate(-37.039 -155.331)" fill="#034ea2"/>
      <path id="Path_2848-2" data-name="Path 2848" d="M53.92,268.075H76.693a2.76,2.76,0,1,0,0-5.52H53.92a2.76,2.76,0,1,0,0,5.52Zm0,0" transform="translate(-37.039 -190.085)" fill="#034ea2"/>
      <path id="Path_2849-2" data-name="Path 2849" d="M177.678,268.071a2.761,2.761,0,1,0-1.952-.809A2.768,2.768,0,0,0,177.678,268.071Zm0,0" transform="translate(-126.637 -190.082)" fill="#034ea2"/>
      <path id="Path_2850-2" data-name="Path 2850" d="M214.322,90.582a24.291,24.291,0,1,0-24.291-24.291A24.318,24.318,0,0,0,214.322,90.582Zm0-43.06a18.77,18.77,0,1,1-18.769,18.769A18.791,18.791,0,0,1,214.322,47.522Zm0,0" transform="translate(-137.579 -30.407)" fill="#034ea2"/>
      <path id="Path_2851-2" data-name="Path 2851" d="M129.759,75.664l-3.337-3.337V34.774a13.818,13.818,0,0,0-13.8-13.8h-3.241a35.879,35.879,0,0,0-65.271,0H13.8A13.818,13.818,0,0,0,0,34.774v69.559a13.817,13.817,0,0,0,13.8,13.8H49.4v6.631a13.815,13.815,0,0,0-13.532,13.8,2.76,2.76,0,0,0,2.76,2.76H87.774a2.76,2.76,0,0,0,2.76-2.76A13.815,13.815,0,0,0,77,124.766v-6.631H112.62a13.817,13.817,0,0,0,13.8-13.8V91.051a9.365,9.365,0,0,0,3.337-15.387ZM112.62,26.493a8.291,8.291,0,0,1,8.282,8.281V66.806L107.851,53.756a35.851,35.851,0,0,0,3.527-27.262ZM76.743,5.52A30.363,30.363,0,1,1,46.38,35.883,30.4,30.4,0,0,1,76.743,5.52ZM13.8,26.493H42.109a35.909,35.909,0,0,0,.2,19.478H16.882a2.76,2.76,0,1,0,0,5.52H44.435a35.863,35.863,0,0,0,50.179,15.5L116.522,88.9a9.3,9.3,0,0,0,4.38,2.472v2.471H5.521V34.774A8.291,8.291,0,0,1,13.8,26.493ZM84.542,135.8H41.861a8.294,8.294,0,0,1,7.808-5.521H76.732A8.3,8.3,0,0,1,84.542,135.8ZM71.483,124.759H54.92v-6.624H71.483Zm41.138-12.145H13.8a8.291,8.291,0,0,1-8.282-8.282V99.365H120.9v4.968a8.291,8.291,0,0,1-8.282,8.282ZM125.855,85a3.844,3.844,0,0,1-5.43,0L99.244,63.814a36.1,36.1,0,0,0,5.429-5.429l21.182,21.182A3.843,3.843,0,0,1,125.855,85Zm0,0" transform="translate(0)" fill="#034ea2"/>
      <path id="Path_2852-2" data-name="Path 2852" d="M270.8,90.528a6.908,6.908,0,0,1,6.9,6.9,2.76,2.76,0,1,0,5.52,0A12.434,12.434,0,0,0,270.8,85.008a2.76,2.76,0,0,0,0,5.52Zm0,0" transform="translate(-194.052 -61.544)" fill="#034ea2"/>
    </g>
  </g>
</svg>
