<svg xmlns="http://www.w3.org/2000/svg" width="88.45" height="68.762" viewBox="0 0 88.45 68.762">
  <g id="Group_2347" data-name="Group 2347" transform="translate(-1524.541 -1698.113)">
    <g id="Group_2346" data-name="Group 2346" transform="translate(1526.499 1705.552)">
      <g id="Group_2341" data-name="Group 2341" transform="translate(24.634 1.263) rotate(-2)">
        <g id="Group_2340" data-name="Group 2340" transform="translate(0 0)">
          <path id="Path_2867" data-name="Path 2867" d="M33.487,3.2A9.437,9.437,0,0,0,18.515,4.254c-.149.209-.289.417-.42.624-.131-.207-.27-.415-.42-.624A9.437,9.437,0,0,0,2.7,3.2,11.045,11.045,0,0,0,0,10.579c0,3.04,1.18,5.845,3.712,8.828a80.141,80.141,0,0,0,9.049,8.375c1.356,1.145,2.759,2.328,4.249,3.62a1.657,1.657,0,0,0,2.17,0c1.49-1.291,2.892-2.475,4.248-3.62,2.357-1.989,4.393-3.708,6.159-5.374,3.429-3.236,6.6-6.908,6.6-11.83A11.044,11.044,0,0,0,33.487,3.2Z" fill="#f9e7b5"/>
        </g>
      </g>
      <g id="Group_2343" data-name="Group 2343" transform="translate(62.634 61.323) rotate(-90)">
        <g id="Group_2342" data-name="Group 2342" transform="translate(0 0)">
          <path id="Path_2868" data-name="Path 2868" d="M51.576.666a4.987,4.987,0,0,0-3.637,1.583L43.07,7.475a4.979,4.979,0,0,0-4.747-3.5H30.67a4.4,4.4,0,0,1-2.909-1.1,11.62,11.62,0,0,0-15.2-.105A4.966,4.966,0,0,0,8.5.666H1.657A1.657,1.657,0,0,0,0,2.322V22.2a1.657,1.657,0,0,0,1.657,1.657H8.5a4.958,4.958,0,0,0,3.735-1.7l.981.276a38.1,38.1,0,0,0,10.31,1.421H38.323A11.652,11.652,0,0,0,47.6,19.22l7.953-10.6h0A4.97,4.97,0,0,0,51.576.666Z" transform="translate(0)" fill="#f9e7b5"/>
        </g>
      </g>
      <g id="Group_2344" data-name="Group 2344" transform="translate(0 61.324) rotate(-90)">
        <g id="Group_2342-2" data-name="Group 2342" transform="translate(0)">
          <path id="Path_2868-2" data-name="Path 2868" d="M51.576,23.193a4.987,4.987,0,0,1-3.637-1.583L43.07,16.383a4.979,4.979,0,0,1-4.747,3.5H30.67a4.4,4.4,0,0,0-2.909,1.1,11.62,11.62,0,0,1-15.2.105A4.966,4.966,0,0,1,8.5,23.193H1.657A1.657,1.657,0,0,1,0,21.536V1.657A1.657,1.657,0,0,1,1.657,0H8.5a4.958,4.958,0,0,1,3.735,1.7l.981-.276A38.1,38.1,0,0,1,23.531,0H38.323A11.652,11.652,0,0,1,47.6,4.639l7.953,10.6h0a4.97,4.97,0,0,1-3.978,7.949Z" transform="translate(0)" fill="#f9e7b5"/>
        </g>
      </g>
    </g>
    <g id="Group_2345" data-name="Group 2345" transform="translate(1524.541 1698.113)">
      <g id="Group_2341-2" data-name="Group 2341" transform="translate(24.634 1.263) rotate(-2)">
        <g id="Group_2340-2" data-name="Group 2340" transform="translate(0 0)">
          <path id="Path_2867-2" data-name="Path 2867" d="M33.487,3.2A9.437,9.437,0,0,0,18.515,4.254c-.149.209-.289.417-.42.624-.131-.207-.27-.415-.42-.624A9.437,9.437,0,0,0,2.7,3.2,11.045,11.045,0,0,0,0,10.579c0,3.04,1.18,5.845,3.712,8.828a80.141,80.141,0,0,0,9.049,8.375c1.356,1.145,2.759,2.328,4.249,3.62a1.657,1.657,0,0,0,2.17,0c1.49-1.291,2.892-2.475,4.248-3.62,2.357-1.989,4.393-3.708,6.159-5.374,3.429-3.236,6.6-6.908,6.6-11.83A11.044,11.044,0,0,0,33.487,3.2ZM27.314,20c-1.7,1.6-3.7,3.294-6.022,5.252-1.032.871-2.09,1.764-3.2,2.713-1.107-.949-2.165-1.842-3.2-2.713-7.224-6.1-11.585-9.778-11.585-14.671,0-4.142,2.821-7.266,6.563-7.266a6.1,6.1,0,0,1,5.053,2.8A11.149,11.149,0,0,1,16.5,9.222a1.657,1.657,0,0,0,3.193,0c.016-.059,1.693-5.909,6.623-5.909,3.741,0,6.563,3.124,6.563,7.266C32.877,13.58,31.318,16.221,27.314,20Z" fill="#034ea2"/>
        </g>
      </g>
      <g id="Group_2343-2" data-name="Group 2343" transform="translate(62.634 61.323) rotate(-90)">
        <g id="Group_2342-3" data-name="Group 2342" transform="translate(0 0)">
          <path id="Path_2868-3" data-name="Path 2868" d="M51.576.666a4.987,4.987,0,0,0-3.637,1.583L43.07,7.475a4.979,4.979,0,0,0-4.747-3.5H30.67a4.4,4.4,0,0,1-2.909-1.1,11.62,11.62,0,0,0-15.2-.105A4.966,4.966,0,0,0,8.5.666H1.657A1.657,1.657,0,0,0,0,2.322V22.2a1.657,1.657,0,0,0,1.657,1.657H8.5a4.958,4.958,0,0,0,3.735-1.7l.981.276a38.1,38.1,0,0,0,10.31,1.421H38.323A11.652,11.652,0,0,0,47.6,19.22l7.953-10.6h0A4.97,4.97,0,0,0,51.576.666ZM10.161,18.888A1.659,1.659,0,0,1,8.5,20.545H3.313V3.979H8.5a1.659,1.659,0,0,1,1.657,1.657ZM52.9,6.627h0l-7.953,10.6a8.323,8.323,0,0,1-6.626,3.313H23.531a34.788,34.788,0,0,1-9.414-1.3l-.648-.182c0-.059,0-.117,0-.177V6.384l1.154-1.016a8.3,8.3,0,0,1,10.944,0,7.712,7.712,0,0,0,5.1,1.924h7.653a1.657,1.657,0,1,1,0,3.313H26.549a1.657,1.657,0,0,0,0,3.313H39.433a4.986,4.986,0,0,0,3.637-1.582l7.293-7.829a1.641,1.641,0,0,1,1.213-.528,1.659,1.659,0,0,1,1.657,1.657A1.64,1.64,0,0,1,52.9,6.627Z" transform="translate(0)" fill="#034ea2"/>
        </g>
      </g>
      <g id="Group_2344-2" data-name="Group 2344" transform="translate(0 61.324) rotate(-90)">
        <g id="Group_2342-4" data-name="Group 2342" transform="translate(0)">
          <path id="Path_2868-4" data-name="Path 2868" d="M51.576,23.193a4.987,4.987,0,0,1-3.637-1.583L43.07,16.383a4.979,4.979,0,0,1-4.747,3.5H30.67a4.4,4.4,0,0,0-2.909,1.1,11.62,11.62,0,0,1-15.2.105A4.966,4.966,0,0,1,8.5,23.193H1.657A1.657,1.657,0,0,1,0,21.536V1.657A1.657,1.657,0,0,1,1.657,0H8.5a4.958,4.958,0,0,1,3.735,1.7l.981-.276A38.1,38.1,0,0,1,23.531,0H38.323A11.652,11.652,0,0,1,47.6,4.639l7.953,10.6h0a4.97,4.97,0,0,1-3.978,7.949ZM10.161,4.97A1.659,1.659,0,0,0,8.5,3.313H3.313V19.88H8.5a1.659,1.659,0,0,0,1.657-1.657ZM52.9,17.231h0l-7.953-10.6a8.323,8.323,0,0,0-6.626-3.313H23.531a34.788,34.788,0,0,0-9.414,1.3l-.648.182c0,.059,0,.117,0,.177v12.5l1.154,1.016a8.3,8.3,0,0,0,10.944,0,7.712,7.712,0,0,1,5.1-1.924h7.653a1.657,1.657,0,1,0,0-3.313H26.549a1.657,1.657,0,1,1,0-3.313H39.433a4.986,4.986,0,0,1,3.637,1.582l7.293,7.829a1.641,1.641,0,0,0,1.213.528,1.659,1.659,0,0,0,1.657-1.657A1.64,1.64,0,0,0,52.9,17.231Z" transform="translate(0)" fill="#034ea2"/>
        </g>
      </g>
    </g>
  </g>
</svg>
