<svg xmlns="http://www.w3.org/2000/svg" width="151.321" height="151.322" viewBox="0 0 151.321 151.322">
  <g id="Group_2333" data-name="Group 2333" transform="translate(-478 -1729)">
    <g id="rating" transform="translate(488 1739)">
      <path id="Path_2800" data-name="Path 2800" d="M240.4,0H212.876A2.074,2.074,0,0,0,210.8,2.074c0,1.146-64.419,52.12-42.145,52.12V90.748l-4.927-5.521a16.062,16.062,0,0,0-11.973-5.363,4.778,4.778,0,0,0-4.2,7.062l8.261,15.175a41.026,41.026,0,0,0,7.763,10.12l8.8,8.376v4.443a4.75,4.75,0,0,0-3.776,4.643v6.9a4.748,4.748,0,0,0,4.742,4.742h32.7a4.748,4.748,0,0,0,4.743-4.742v-6.9a4.747,4.747,0,0,0-3.639-4.608v-4.611c1.89-2.385,7.752-11.137,7.752-27.949V79.847a7.346,7.346,0,0,0-7.338-7.338c-1.352,0-7.439-3.616-10.528-3.616A7.293,7.293,0,0,0,193.34,69.9a7.35,7.35,0,0,0-6.818-4.625c-1.142,0-2.225.262-3.19-11.081H240.4a6.23,6.23,0,0,0,6.223-6.223V6.223A6.229,6.229,0,0,0,240.4,0Z" transform="translate(-105.305 0)" fill="#f9e7b5"/>
      <path id="Path_2801" data-name="Path 2801" d="M109.636,0,6.223,0A6.23,6.23,0,0,0,0,6.223V47.971a6.23,6.23,0,0,0,6.223,6.223l57.877,0C65.245,54.2,110.782,0,109.636,0Z" fill="#f9e7b5"/>
      <path id="Path_2802" data-name="Path 2802" d="M230.326,52.442a4.438,4.438,0,0,0-2.46-7.571l-4.829-.7a.291.291,0,0,1-.219-.159l-2.16-4.377a4.439,4.439,0,0,0-7.961,0l-2.16,4.377a.291.291,0,0,1-.218.159l-4.831.7a4.439,4.439,0,0,0-2.46,7.571l3.5,3.407a.29.29,0,0,1,.083.257l-.825,4.81a4.439,4.439,0,0,0,6.44,4.679l4.32-2.271a.288.288,0,0,1,.27,0l4.321,2.271a4.438,4.438,0,0,0,6.44-4.679l-.825-4.81a.29.29,0,0,1,.083-.257Zm-6.391.437a4.436,4.436,0,0,0-1.276,3.929l.825,4.811a.29.29,0,0,1-.421.306l-4.32-2.271a4.438,4.438,0,0,0-4.131,0l-4.32,2.271a.29.29,0,0,1-.421-.306l.825-4.811a4.437,4.437,0,0,0-1.277-3.929l-3.495-3.407a.29.29,0,0,1,.161-.5l4.831-.7a4.438,4.438,0,0,0,3.341-2.428l2.16-4.377a.29.29,0,0,1,.521,0l2.16,4.376a4.438,4.438,0,0,0,3.342,2.429l4.83.7a.29.29,0,0,1,.161.5Z" transform="translate(-146.016 -26.903)" fill="#f9e7b5"/>
      <path id="Path_2803" data-name="Path 2803" d="M77.737,60.918l-.825-4.81A.289.289,0,0,1,77,55.85l3.495-3.407a4.438,4.438,0,0,0-2.46-7.571l-4.83-.7a.291.291,0,0,1-.219-.159l-2.16-4.377a4.439,4.439,0,0,0-7.961,0L60.7,44.012a.291.291,0,0,1-.219.159l-4.83.7a4.439,4.439,0,0,0-2.46,7.571l3.5,3.407a.29.29,0,0,1,.083.257l-.825,4.81a4.439,4.439,0,0,0,6.44,4.679l4.32-2.271a.291.291,0,0,1,.27,0L71.3,65.6a4.438,4.438,0,0,0,6.44-4.679ZM74.1,52.879a4.437,4.437,0,0,0-1.277,3.929l.825,4.811a.29.29,0,0,1-.421.306l-4.32-2.271a4.439,4.439,0,0,0-4.131,0l-4.32,2.271a.29.29,0,0,1-.421-.306l.825-4.811a4.437,4.437,0,0,0-1.277-3.929l-3.495-3.407a.29.29,0,0,1,.161-.5l4.831-.7a4.439,4.439,0,0,0,3.342-2.428l2.16-4.377a.29.29,0,0,1,.521,0l2.16,4.376A4.438,4.438,0,0,0,72.6,48.276l4.83.7a.29.29,0,0,1,.161.5Z" transform="translate(-37.538 -26.904)" fill="#f9e7b5"/>
      <path id="Path_2804" data-name="Path 2804" d="M380.162,52.442a4.438,4.438,0,0,0-2.46-7.571l-4.829-.7a.291.291,0,0,1-.219-.159l-2.16-4.377a4.439,4.439,0,0,0-7.961,0l-2.16,4.376a.292.292,0,0,1-.219.159l-4.83.7a4.439,4.439,0,0,0-2.46,7.571l3.5,3.407a.289.289,0,0,1,.083.257l-.824,4.81a4.438,4.438,0,0,0,6.44,4.679l4.32-2.271a.29.29,0,0,1,.27,0l4.32,2.271a4.438,4.438,0,0,0,6.44-4.679l-.825-4.81a.29.29,0,0,1,.083-.257Zm-6.391.437a4.437,4.437,0,0,0-1.276,3.929l.825,4.811a.29.29,0,0,1-.422.306l-4.32-2.271a4.438,4.438,0,0,0-4.131,0l-4.32,2.271a.29.29,0,0,1-.421-.306l.825-4.81a4.438,4.438,0,0,0-1.276-3.929l-3.495-3.407a.29.29,0,0,1,.161-.495l4.831-.7a4.441,4.441,0,0,0,3.342-2.428l2.16-4.377a.29.29,0,0,1,.52,0l2.16,4.376a4.438,4.438,0,0,0,3.342,2.429l4.83.7a.29.29,0,0,1,.161.5Z" transform="translate(-254.494 -26.903)" fill="#f9e7b5"/>
    </g>
    <g id="rating-2" data-name="rating" transform="translate(478 1729)">
      <path id="Path_2800-2" data-name="Path 2800" d="M240.4,0H212.876a2.074,2.074,0,1,0,0,4.149H240.4a2.077,2.077,0,0,1,2.074,2.074V47.971a2.077,2.077,0,0,1-2.074,2.074H183.332v-1a7.338,7.338,0,0,0-14.676,0v1H147.527a2.074,2.074,0,1,0,0,4.149h21.129V90.748l-4.927-5.521a16.062,16.062,0,0,0-11.973-5.363,4.778,4.778,0,0,0-4.2,7.062l8.261,15.175a41.026,41.026,0,0,0,7.763,10.12l8.8,8.376v4.443a4.75,4.75,0,0,0-3.776,4.643v6.9a4.748,4.748,0,0,0,4.742,4.742h32.7a4.748,4.748,0,0,0,4.743-4.742v-6.9a4.747,4.747,0,0,0-3.639-4.608v-4.611c1.89-2.385,7.752-11.137,7.752-27.949V79.847a7.336,7.336,0,0,0-11.047-6.329A7.335,7.335,0,0,0,193.34,69.9a7.337,7.337,0,0,0-10.008-3.895V54.195H240.4a6.23,6.23,0,0,0,6.223-6.223V6.223A6.229,6.229,0,0,0,240.4,0ZM186.522,69.424a3.193,3.193,0,0,1,3.19,3.19V76.23a2.074,2.074,0,0,0,4.149,0,3.19,3.19,0,1,1,6.379,0v3.616a2.074,2.074,0,0,0,4.149,0,3.19,3.19,0,0,1,6.379,0V92.516c0,17.82-7.119,25.7-7.183,25.765a2.073,2.073,0,0,0-.569,1.427v5.233H198a2.074,2.074,0,0,0,0,4.149h8.056a.6.6,0,0,1,.594.594v6.9a.6.6,0,0,1-.594.594h-32.7a.6.6,0,0,1-.594-.594v-6.9a.6.6,0,0,1,.594-.594h16.352a2.074,2.074,0,0,0,0-4.149h-13.17v-5.233a2.074,2.074,0,0,0-.645-1.5l-9.448-8.99a36.878,36.878,0,0,1-6.979-9.1L151.2,84.942c-.2-.523,0-.852.553-.93a11.908,11.908,0,0,1,8.877,3.976l8.47,9.492a2.133,2.133,0,0,0,3.7-1.381V49.048a3.19,3.19,0,1,1,6.379,0V72.613a2.074,2.074,0,0,0,4.149,0,3.194,3.194,0,0,1,3.19-3.19Z" transform="translate(-105.305 0)" fill="#034ea2"/>
      <path id="Path_2801-2" data-name="Path 2801" d="M33.925,50.045H6.223a2.077,2.077,0,0,1-2.074-2.074V6.223A2.077,2.077,0,0,1,6.223,4.148H99.273a2.074,2.074,0,1,0,0-4.148H6.223A6.23,6.23,0,0,0,0,6.223V47.971a6.23,6.23,0,0,0,6.223,6.223h27.7a2.074,2.074,0,1,0,0-4.148Z" fill="#034ea2"/>
      <path id="Path_2802-2" data-name="Path 2802" d="M230.326,52.442a4.438,4.438,0,0,0-2.46-7.571l-4.829-.7a.291.291,0,0,1-.219-.159l-2.16-4.377a4.439,4.439,0,0,0-7.961,0l-2.16,4.377a.291.291,0,0,1-.218.159l-4.831.7a4.439,4.439,0,0,0-2.46,7.571l3.5,3.407a.29.29,0,0,1,.083.257l-.825,4.81a4.439,4.439,0,0,0,6.44,4.679l4.32-2.271a.288.288,0,0,1,.27,0l4.321,2.271a4.438,4.438,0,0,0,6.44-4.679l-.825-4.81a.29.29,0,0,1,.083-.257Zm-6.391.437a4.436,4.436,0,0,0-1.276,3.929l.825,4.811a.29.29,0,0,1-.421.306l-4.32-2.271a4.438,4.438,0,0,0-4.131,0l-4.32,2.271a.29.29,0,0,1-.421-.306l.825-4.811a4.437,4.437,0,0,0-1.277-3.929l-3.495-3.407a.29.29,0,0,1,.161-.5l4.831-.7a4.438,4.438,0,0,0,3.341-2.428l2.16-4.377a.29.29,0,0,1,.521,0l2.16,4.376a4.438,4.438,0,0,0,3.342,2.429l4.83.7a.29.29,0,0,1,.161.5Z" transform="translate(-146.016 -26.903)" fill="#034ea2"/>
      <path id="Path_2803-2" data-name="Path 2803" d="M77.737,60.918l-.825-4.81A.289.289,0,0,1,77,55.85l3.495-3.407a4.438,4.438,0,0,0-2.46-7.571l-4.83-.7a.291.291,0,0,1-.219-.159l-2.16-4.377a4.439,4.439,0,0,0-7.961,0L60.7,44.012a.291.291,0,0,1-.219.159l-4.83.7a4.439,4.439,0,0,0-2.46,7.571l3.5,3.407a.29.29,0,0,1,.083.257l-.825,4.81a4.439,4.439,0,0,0,6.44,4.679l4.32-2.271a.291.291,0,0,1,.27,0L71.3,65.6a4.438,4.438,0,0,0,6.44-4.679ZM74.1,52.879a4.437,4.437,0,0,0-1.277,3.929l.825,4.811a.29.29,0,0,1-.421.306l-4.32-2.271a4.439,4.439,0,0,0-4.131,0l-4.32,2.271a.29.29,0,0,1-.421-.306l.825-4.811a4.437,4.437,0,0,0-1.277-3.929l-3.495-3.407a.29.29,0,0,1,.161-.5l4.831-.7a4.439,4.439,0,0,0,3.342-2.428l2.16-4.377a.29.29,0,0,1,.521,0l2.16,4.376A4.438,4.438,0,0,0,72.6,48.276l4.83.7a.29.29,0,0,1,.161.5Z" transform="translate(-37.538 -26.904)" fill="#034ea2"/>
      <path id="Path_2804-2" data-name="Path 2804" d="M380.162,52.442a4.438,4.438,0,0,0-2.46-7.571l-4.829-.7a.291.291,0,0,1-.219-.159l-2.16-4.377a4.439,4.439,0,0,0-7.961,0l-2.16,4.376a.292.292,0,0,1-.219.159l-4.83.7a4.439,4.439,0,0,0-2.46,7.571l3.5,3.407a.289.289,0,0,1,.083.257l-.824,4.81a4.438,4.438,0,0,0,6.44,4.679l4.32-2.271a.29.29,0,0,1,.27,0l4.32,2.271a4.438,4.438,0,0,0,6.44-4.679l-.825-4.81a.29.29,0,0,1,.083-.257Zm-6.391.437a4.437,4.437,0,0,0-1.276,3.929l.825,4.811a.29.29,0,0,1-.422.306l-4.32-2.271a4.438,4.438,0,0,0-4.131,0l-4.32,2.271a.29.29,0,0,1-.421-.306l.825-4.81a4.438,4.438,0,0,0-1.276-3.929l-3.495-3.407a.29.29,0,0,1,.161-.495l4.831-.7a4.441,4.441,0,0,0,3.342-2.428l2.16-4.377a.29.29,0,0,1,.52,0l2.16,4.376a4.438,4.438,0,0,0,3.342,2.429l4.83.7a.29.29,0,0,1,.161.5Z" transform="translate(-254.494 -26.903)" fill="#034ea2"/>
    </g>
  </g>
</svg>
