<svg xmlns="http://www.w3.org/2000/svg" width="71.721" height="65.559" viewBox="0 0 71.721 65.559">
  <g id="Group_2327" data-name="Group 2327" transform="translate(-880.18 -1352.22)">
    <path id="Path_2853" data-name="Path 2853" d="M39.782,34.175a26.628,26.628,0,0,0-1.25-3.763,24.313,24.313,0,0,0-1.746-3.36,20.265,20.265,0,0,0-10.5-7.978,10.594,10.594,0,1,0-12.681,0A20.263,20.263,0,0,0,.1,34.175a4.733,4.733,0,0,0,4.627,5.708H35.155a4.733,4.733,0,0,0,4.627-5.708Z" transform="translate(891.018 1374.896)" fill="#f9e7b5"/>
    <path id="Path_2854" data-name="Path 2854" d="M39.782,34.175a26.628,26.628,0,0,0-1.25-3.763,24.313,24.313,0,0,0-1.746-3.36,20.265,20.265,0,0,0-10.5-7.978,10.594,10.594,0,1,0-12.681,0A20.263,20.263,0,0,0,.1,34.175a4.733,4.733,0,0,0,4.627,5.708H35.155a4.733,4.733,0,0,0,4.627-5.708Z" transform="translate(912.018 1361.896)" fill="#f9e7b5"/>
    <path id="add-group" d="M36.809,42.166a23.573,23.573,0,0,0-4.953-2.643,12.637,12.637,0,0,0,4.111-8.337,18.689,18.689,0,0,1,23.7-1.939,2.483,2.483,0,1,0,2.841-4.072,23.6,23.6,0,0,0-4.953-2.643A12.662,12.662,0,1,0,40.506,22.5q-.52.2-1.033.425A23.578,23.578,0,0,0,35.1,25.44,12.66,12.66,0,1,0,14.786,39.474,23.877,23.877,0,0,0,.368,54.329a7.449,7.449,0,0,0,7.091,9.731h21.6a2.483,2.483,0,0,0,0-4.966H7.458a2.484,2.484,0,0,1-2.364-3.244,19.156,19.156,0,0,1,18.2-12.958,18.571,18.571,0,0,1,10.675,3.347,2.483,2.483,0,1,0,2.84-4.072Zm12.235-36.7a7.7,7.7,0,1,1-7.7,7.7,7.705,7.705,0,0,1,7.7-7.7Zm-25.7,16.991a7.7,7.7,0,1,1-7.7,7.7A7.705,7.705,0,0,1,23.348,22.457ZM63.569,52.266a2.483,2.483,0,0,1-2.483,2.483H54.258v6.827a2.483,2.483,0,1,1-4.966,0V54.749H42.465a2.483,2.483,0,0,1,0-4.966h6.827V42.956a2.483,2.483,0,0,1,4.966,0v6.827h6.827a2.483,2.483,0,0,1,2.483,2.483Zm0,0" transform="translate(881.214 1352.72)" fill="#034ea2" stroke="#f1f6f8" stroke-width="2"/>
  </g>
</svg>
