<svg xmlns="http://www.w3.org/2000/svg" width="150.66" height="155.322" viewBox="0 0 150.66 155.322">
  <g id="Group_2332" data-name="Group 2332" transform="translate(-1301 -1369)">
    <g id="research" transform="translate(1310.338 1383)">
      <rect id="Rectangle_668" data-name="Rectangle 668" width="113" height="74" rx="6" transform="translate(0.662 -3)" fill="#f9e7b5"/>
      <g id="Group_2243" data-name="Group 2243" transform="translate(52.993 52.993)">
        <g id="Group_2242" data-name="Group 2242">
          <path id="Path_2794" data-name="Path 2794" d="M246.6,201.36a31.989,31.989,0,1,0,0,45.239A31.989,31.989,0,0,0,246.6,201.36Zm-48.729,22.612C197.872,209.557,197.862,238.387,197.867,223.972Z" transform="translate(-191.986 -191.989)" fill="#f9e7b5"/>
        </g>
      </g>
      <g id="Group_2245" data-name="Group 2245" transform="translate(108.74 108.735)">
        <g id="Group_2244" data-name="Group 2244">
          <path id="Path_2795" data-name="Path 2795" d="M425.676,413.279,407.2,394.8a2.943,2.943,0,0,0-4.163,0l-8.214,8.214a2.944,2.944,0,0,0,0,4.163L413.3,425.666a2.943,2.943,0,0,0,2.081.862h0a2.944,2.944,0,0,0,2.082-.871l8.214-8.214A2.944,2.944,0,0,0,425.676,413.279ZM401.062,405.1l4.051-4.051Z" transform="translate(-393.956 -393.942)" fill="#f9e7b5"/>
        </g>
      </g>
      <g id="Group_2247" data-name="Group 2247" transform="translate(103.439 103.436)">
        <g id="Group_2246" data-name="Group 2246" transform="translate(0 0)">
          <rect id="Rectangle_662" data-name="Rectangle 662" width="5.888" height="14.521" transform="translate(0 4.164) rotate(-45)" fill="#f9e7b5"/>
        </g>
      </g>
      <g id="Group_2249" data-name="Group 2249" transform="translate(85.383 64.773)">
        <g id="Group_2248" data-name="Group 2248">
          <path id="Path_2796" data-name="Path 2796" d="M309.334,234.667v5.888a14.739,14.739,0,0,1,14.721,14.721h5.888A20.633,20.633,0,0,0,309.334,234.667Z" transform="translate(-309.334 -234.667)" fill="#f9e7b5"/>
        </g>
      </g>
    </g>
    <g id="research-2" data-name="research" transform="translate(1300.999 1369)">
      <g id="Group_2235-2" data-name="Group 2235" transform="translate(0.001)">
        <g id="Group_2234-2" data-name="Group 2234" transform="translate(0)">
          <path id="Path_2792" data-name="Path 2792" d="M108.937,0H8.834A8.833,8.833,0,0,0,0,8.833V79.493a8.833,8.833,0,0,0,8.833,8.833H47.108V82.438H8.834a2.944,2.944,0,0,1-2.944-2.944V8.833A2.944,2.944,0,0,1,8.834,5.888h100.1a2.944,2.944,0,0,1,2.944,2.944v53h5.888v-53A8.833,8.833,0,0,0,108.937,0Z" transform="translate(-0.001)" fill="#034ea2"/>
        </g>
      </g>
      <g id="Group_2237" data-name="Group 2237" transform="translate(35.331 85.382)">
        <g id="Group_2236" data-name="Group 2236">
          <rect id="Rectangle_660" data-name="Rectangle 660" width="5.888" height="17.665" fill="#034ea2"/>
        </g>
      </g>
      <g id="Group_2239" data-name="Group 2239" transform="translate(11.778 61.828)">
        <g id="Group_2238" data-name="Group 2238">
          <path id="Path_2793" data-name="Path 2793" d="M51.5,232.833a2.944,2.944,0,0,1-2.944-2.944V224H42.668v5.888a8.833,8.833,0,0,0,8.833,8.833h5.888v-5.888Z" transform="translate(-42.668 -224)" fill="#034ea2"/>
        </g>
      </g>
      <g id="Group_2241" data-name="Group 2241" transform="translate(11.778 50.051)">
        <g id="Group_2240" data-name="Group 2240">
          <rect id="Rectangle_661" data-name="Rectangle 661" width="5.888" height="5.888" fill="#034ea2"/>
        </g>
      </g>
      <g id="Group_2243-2" data-name="Group 2243" transform="translate(52.993 52.993)">
        <g id="Group_2242-2" data-name="Group 2242">
          <path id="Path_2794-2" data-name="Path 2794" d="M246.6,201.36a31.989,31.989,0,1,0,0,45.239A31.989,31.989,0,0,0,246.6,201.36Zm-22.638,48.721a26.1,26.1,0,1,1,26.109-26.092A26.1,26.1,0,0,1,223.958,250.081Z" transform="translate(-191.986 -191.989)" fill="#034ea2"/>
        </g>
      </g>
      <g id="Group_2245-2" data-name="Group 2245" transform="translate(108.74 108.735)">
        <g id="Group_2244-2" data-name="Group 2244">
          <path id="Path_2795-2" data-name="Path 2795" d="M425.676,413.279,407.2,394.8a2.943,2.943,0,0,0-4.163,0l-8.214,8.214a2.944,2.944,0,0,0,0,4.163L413.3,425.666a2.943,2.943,0,0,0,2.081.862h0a2.944,2.944,0,0,0,2.082-.871l8.214-8.214A2.944,2.944,0,0,0,425.676,413.279Zm-10.3,6.142L401.062,405.1l4.051-4.051,14.318,14.321Z" transform="translate(-393.956 -393.942)" fill="#034ea2"/>
        </g>
      </g>
      <g id="Group_2247-2" data-name="Group 2247" transform="translate(103.439 103.436)">
        <g id="Group_2246-2" data-name="Group 2246" transform="translate(0 0)">
          <rect id="Rectangle_662-2" data-name="Rectangle 662" width="5.888" height="14.521" transform="translate(0 4.164) rotate(-45)" fill="#034ea2"/>
        </g>
      </g>
      <g id="Group_2249-2" data-name="Group 2249" transform="translate(85.383 64.773)">
        <g id="Group_2248-2" data-name="Group 2248">
          <path id="Path_2796-2" data-name="Path 2796" d="M309.334,234.667v5.888a14.739,14.739,0,0,1,14.721,14.721h5.888A20.633,20.633,0,0,0,309.334,234.667Z" transform="translate(-309.334 -234.667)" fill="#034ea2"/>
        </g>
      </g>
      <g id="Group_2251" data-name="Group 2251" transform="translate(29.443 100.103)">
        <g id="Group_2250" data-name="Group 2250">
          <rect id="Rectangle_663" data-name="Rectangle 663" width="23.554" height="5.888" fill="#034ea2"/>
        </g>
      </g>
      <g id="Group_2253" data-name="Group 2253" transform="translate(35.331 11.777)">
        <g id="Group_2252" data-name="Group 2252">
          <path id="Path_2797" data-name="Path 2797" d="M136.834,42.667a8.833,8.833,0,1,0,8.833,8.833A8.833,8.833,0,0,0,136.834,42.667Zm0,11.777a2.944,2.944,0,1,1,2.944-2.944A2.944,2.944,0,0,1,136.834,54.444Z" transform="translate(-128.001 -42.667)" fill="#034ea2"/>
        </g>
      </g>
      <g id="Group_2255" data-name="Group 2255" transform="translate(55.941 32.386)">
        <g id="Group_2254" data-name="Group 2254">
          <path id="Path_2798" data-name="Path 2798" d="M211.5,117.333a8.833,8.833,0,1,0,8.833,8.833A8.833,8.833,0,0,0,211.5,117.333Zm0,11.777a2.944,2.944,0,1,1,2.944-2.944A2.944,2.944,0,0,1,211.5,129.11Z" transform="translate(-202.668 -117.333)" fill="#034ea2"/>
        </g>
      </g>
      <g id="Group_2257" data-name="Group 2257" transform="translate(24.417 21.473)">
        <g id="Group_2256" data-name="Group 2256" transform="translate(0 0)">
          <rect id="Rectangle_664" data-name="Rectangle 664" width="20.818" height="5.888" transform="translate(0 14.721) rotate(-45)" fill="#034ea2"/>
        </g>
      </g>
      <g id="Group_2259" data-name="Group 2259" transform="translate(45.014 21.48)">
        <g id="Group_2258" data-name="Group 2258" transform="translate(0 0)">
          <rect id="Rectangle_665" data-name="Rectangle 665" width="5.888" height="20.818" transform="translate(0 4.164) rotate(-45)" fill="#034ea2"/>
        </g>
      </g>
      <g id="Group_2261" data-name="Group 2261" transform="translate(76.55 11.777)">
        <g id="Group_2260" data-name="Group 2260">
          <path id="Path_2799" data-name="Path 2799" d="M286.167,42.667A8.833,8.833,0,1,0,295,51.5,8.833,8.833,0,0,0,286.167,42.667Zm0,11.777a2.944,2.944,0,1,1,2.944-2.944A2.944,2.944,0,0,1,286.167,54.444Z" transform="translate(-277.334 -42.667)" fill="#034ea2"/>
        </g>
      </g>
      <g id="Group_2263" data-name="Group 2263" transform="translate(65.634 21.483)">
        <g id="Group_2262" data-name="Group 2262" transform="translate(0 0)">
          <rect id="Rectangle_666" data-name="Rectangle 666" width="20.818" height="5.888" transform="translate(0 14.721) rotate(-45)" fill="#034ea2"/>
        </g>
      </g>
    </g>
  </g>
</svg>
