<svg xmlns="http://www.w3.org/2000/svg" width="57.992" height="66.481" viewBox="0 0 57.992 66.481">
  <g id="Group_2326" data-name="Group 2326" transform="translate(-797 -1218)">
    <g id="increase" transform="translate(765.3 1220)">
      <path id="Path_2765" data-name="Path 2765" d="M138.266,34.433a17.217,17.217,0,1,0-17.217-17.217A17.236,17.236,0,0,0,138.266,34.433Zm0-32.541Z" transform="translate(-76.348)" fill="#f9e7b5"/>
      <path id="Path_2768" data-name="Path 2768" d="M74.267,345.926a.946.946,0,0,0-1.379,0l-6.429,6.834a.946.946,0,0,0,.689,1.595h1.858v3.437c0,.523,0,3.263,0,3.786v4.057a.946.946,0,0,0,.946.946H77.2a.946.946,0,0,0,.946-.946V354.355h1.858a.946.946,0,0,0,.689-1.595Z" transform="translate(-28.409 -302.1)" fill="#f9e7b5"/>
      <path id="Path_2769" data-name="Path 2769" d="M207.258,294.226a.947.947,0,0,0-1.379,0l-6.429,6.835a.946.946,0,0,0,.689,1.595H202v17.79a.947.947,0,0,0,.946.946h7.248a.946.946,0,0,0,.946-.946v-17.79H213a.946.946,0,0,0,.689-1.595ZM203.891,319.5Z" transform="translate(-144.652 -256.911)" fill="#f9e7b5"/>
      <path id="Path_2770" data-name="Path 2770" d="M340.249,246.392a.946.946,0,0,0-1.379,0l-6.429,6.834a.946.946,0,0,0,.689,1.595h1.858V260.6c0,.523,0,3.263,0,3.786v14.253a.946.946,0,0,0,.946.946h7.249a.946.946,0,0,0,.946-.946V254.821h1.858a.946.946,0,0,0,.689-1.595Z" transform="translate(-260.894 -215.101)" fill="#f9e7b5"/>
      <path id="Path_2771" data-name="Path 2771" d="M41.144,132.827a.947.947,0,0,0-.946-.946H34.646a.946.946,0,0,0,0,1.893H40.2A.947.947,0,0,0,41.144,132.827Z" transform="translate(0 -115.272)" fill="#f9e7b5"/>
      <path id="Path_2772" data-name="Path 2772" d="M77.136,197.916l-1.974.773a.946.946,0,1,0,.69,1.762l1.974-.773a.946.946,0,1,0-.69-1.762Z" transform="translate(-35.714 -172.933)" fill="#f9e7b5"/>
      <path id="Path_2773" data-name="Path 2773" d="M75.162,61.594l1.974.773a.946.946,0,1,0,.69-1.762l-1.974-.773a.946.946,0,1,0-.69,1.762Z" transform="translate(-35.714 -52.239)" fill="#f9e7b5"/>
      <path id="Path_2774" data-name="Path 2774" d="M425.692,131.881h-5.551a.946.946,0,0,0,0,1.893h5.551a.946.946,0,1,0,0-1.893Z" transform="translate(-336.946 -115.272)" fill="#f9e7b5"/>
      <path id="Path_2775" data-name="Path 2775" d="M407.332,199.68l1.974.773a.946.946,0,1,0,.691-1.762l-1.974-.773a.946.946,0,1,0-.691,1.762Z" transform="translate(-326.052 -172.935)" fill="#f9e7b5"/>
      <path id="Path_2776" data-name="Path 2776" d="M407.678,62.433a.943.943,0,0,0,.345-.065L410,61.594a.946.946,0,0,0-.691-1.762l-1.974.773a.947.947,0,0,0,.346,1.828Z" transform="translate(-326.052 -52.239)" fill="#f9e7b5"/>
    </g>
    <g id="increase-2" data-name="increase" transform="translate(763.3 1218)">
      <path id="Path_2765-2" data-name="Path 2765" d="M138.266,34.433a17.217,17.217,0,1,0-17.217-17.217A17.236,17.236,0,0,0,138.266,34.433Zm0-32.541a15.324,15.324,0,1,1-15.324,15.324A15.341,15.341,0,0,1,138.266,1.893Z" transform="translate(-76.348)" fill="#034ea2"/>
      <path id="Path_2766" data-name="Path 2766" d="M171.34,62.742a12.451,12.451,0,1,0-8.363-21.676.946.946,0,1,0,1.272,1.4,10.534,10.534,0,1,1-2.193,2.79.946.946,0,1,0-1.663-.9A12.455,12.455,0,0,0,171.34,62.742Z" transform="translate(-109.423 -33.074)" fill="#034ea2"/>
      <path id="Path_2767" data-name="Path 2767" d="M228.292,85.577a2.031,2.031,0,0,1-1.97-1.2.947.947,0,0,0-1.836.466h0l.005.018a.937.937,0,0,0,.043.13,3.781,3.781,0,0,0,2.943,2.381v1.259a.946.946,0,0,0,1.893,0V87.406a3.62,3.62,0,0,0,1.895-.912A3.749,3.749,0,0,0,232.4,83.8c0-.959-.376-3.231-3.86-3.615a2.075,2.075,0,0,1-1.463-.653,1.321,1.321,0,0,1-.275-.8,1.553,1.553,0,0,1,1.626-1.626,1.682,1.682,0,0,1,1.534.8.948.948,0,1,0,1.723-.786h0a3.476,3.476,0,0,0-2.311-1.8v-1.27a.946.946,0,1,0-1.893,0v1.266a3.451,3.451,0,0,0-2.573,3.412c0,1.363.9,3.054,3.423,3.333,2.175.24,2.175,1.365,2.175,1.734a1.862,1.862,0,0,1-.535,1.315A2.168,2.168,0,0,1,228.292,85.577Z" transform="translate(-166.735 -63.902)" fill="#034ea2"/>
      <path id="Path_2768-2" data-name="Path 2768" d="M74.267,345.926a.946.946,0,0,0-1.379,0l-6.429,6.834a.946.946,0,0,0,.689,1.595h1.858v3.437a.946.946,0,1,0,1.893,0v-4.383a.947.947,0,0,0-.946-.946h-.615l4.239-4.507,4.239,4.507H77.2a.947.947,0,0,0-.946.946v11.279H70.9v-3.11a.946.946,0,0,0-1.893,0v4.057a.946.946,0,0,0,.946.946H77.2a.946.946,0,0,0,.946-.946V354.355h1.858a.946.946,0,0,0,.689-1.595Z" transform="translate(-28.409 -302.1)" fill="#034ea2"/>
      <path id="Path_2769-2" data-name="Path 2769" d="M207.258,294.226a.947.947,0,0,0-1.379,0l-6.429,6.835a.946.946,0,0,0,.689,1.595H202v17.79a.947.947,0,0,0,.946.946h7.248a.946.946,0,0,0,.946-.946v-17.79H213a.946.946,0,0,0,.689-1.595Zm2.935,6.537a.946.946,0,0,0-.946.946V319.5h-5.356v-17.79a.947.947,0,0,0-.946-.946h-.615l4.239-4.507,4.239,4.507h-.615Z" transform="translate(-144.652 -256.911)" fill="#034ea2"/>
      <path id="Path_2770-2" data-name="Path 2770" d="M340.249,246.392a.946.946,0,0,0-1.379,0l-6.429,6.834a.946.946,0,0,0,.689,1.595h1.858V260.6a.946.946,0,1,0,1.893,0v-6.722a.946.946,0,0,0-.946-.946h-.615l4.239-4.507,4.239,4.507h-.615a.946.946,0,0,0-.946.946v23.814h-5.356V264.382a.946.946,0,0,0-1.893,0v14.253a.946.946,0,0,0,.946.946h7.249a.946.946,0,0,0,.946-.946V254.821h1.858a.946.946,0,0,0,.689-1.595Z" transform="translate(-260.894 -215.101)" fill="#034ea2"/>
      <path id="Path_2771-2" data-name="Path 2771" d="M41.144,132.827a.947.947,0,0,0-.946-.946H34.646a.946.946,0,0,0,0,1.893H40.2A.947.947,0,0,0,41.144,132.827Z" transform="translate(0 -115.272)" fill="#034ea2"/>
      <path id="Path_2772-2" data-name="Path 2772" d="M77.136,197.916l-1.974.773a.946.946,0,1,0,.69,1.762l1.974-.773a.946.946,0,1,0-.69-1.762Z" transform="translate(-35.714 -172.933)" fill="#034ea2"/>
      <path id="Path_2773-2" data-name="Path 2773" d="M75.162,61.594l1.974.773a.946.946,0,1,0,.69-1.762l-1.974-.773a.946.946,0,1,0-.69,1.762Z" transform="translate(-35.714 -52.239)" fill="#034ea2"/>
      <path id="Path_2774-2" data-name="Path 2774" d="M425.692,131.881h-5.551a.946.946,0,0,0,0,1.893h5.551a.946.946,0,1,0,0-1.893Z" transform="translate(-336.946 -115.272)" fill="#034ea2"/>
      <path id="Path_2775-2" data-name="Path 2775" d="M407.332,199.68l1.974.773a.946.946,0,1,0,.691-1.762l-1.974-.773a.946.946,0,1,0-.691,1.762Z" transform="translate(-326.052 -172.935)" fill="#034ea2"/>
      <path id="Path_2776-2" data-name="Path 2776" d="M407.678,62.433a.943.943,0,0,0,.345-.065L410,61.594a.946.946,0,0,0-.691-1.762l-1.974.773a.947.947,0,0,0,.346,1.828Z" transform="translate(-326.052 -52.239)" fill="#034ea2"/>
    </g>
  </g>
</svg>
