<svg xmlns="http://www.w3.org/2000/svg" width="151.322" height="151.322" viewBox="0 0 151.322 151.322">
  <g id="Group_2336" data-name="Group 2336" transform="translate(-1301.339 -2810)">
    <g id="analytics" transform="translate(1311.339 2820)">
      <g id="Group_2311" data-name="Group 2311">
        <g id="Group_2310" data-name="Group 2310">
          <path id="Path_2841" data-name="Path 2841" d="M138.562,57.619c-19.19,0-27.057,9.874-27.057-28.36a2.761,2.761,0,0,0-.808-1.952L84.2.808A2.761,2.761,0,0,0,82.247,0H8.281A8.29,8.29,0,0,0,0,8.281V133.041a8.29,8.29,0,0,0,8.281,8.281H138.562a2.76,2.76,0,0,0,2.76-2.76V60.379A2.76,2.76,0,0,0,138.562,57.619Z" fill="#f9e7b5"/>
        </g>
      </g>
      <g id="Group_2313" data-name="Group 2313" transform="translate(118.136 81.395)">
        <g id="Group_2312" data-name="Group 2312">
          <path id="Path_2842" data-name="Path 2842" d="M432.712,295.7a2.759,2.759,0,1,0,.809,1.951A2.77,2.77,0,0,0,432.712,295.7Z" transform="translate(-428 -294.89)" fill="#034ea2"/>
        </g>
      </g>
      <g id="Group_2319" data-name="Group 2319" transform="translate(14.905 94.537)">
        <g id="Group_2318" data-name="Group 2318">
          <path id="Path_2845" data-name="Path 2845" d="M74.425,342.5H56.76a2.76,2.76,0,0,0,0,5.52H74.425a2.76,2.76,0,0,0,0-5.52Z" transform="translate(-54 -342.5)" fill="#034ea2"/>
        </g>
      </g>
      <g id="Group_2321" data-name="Group 2321" transform="translate(46.393 94.537)">
        <g id="Group_2320" data-name="Group 2320">
          <path id="Path_2846" data-name="Path 2846" d="M172.792,343.309a2.758,2.758,0,1,0,.809,1.951A2.781,2.781,0,0,0,172.792,343.309Z" transform="translate(-172.08 -342.5)" fill="#034ea2"/>
        </g>
      </g>
    </g>
    <g id="analytics-2" data-name="analytics" transform="translate(1301.339 2810)">
      <g id="Group_2311-2" data-name="Group 2311">
        <g id="Group_2310-2" data-name="Group 2310">
          <path id="Path_2841-2" data-name="Path 2841" d="M138.562,57.619H120.9a2.76,2.76,0,0,0-2.76,2.76V74.318a2.76,2.76,0,0,0,5.52,0V63.139H135.8V135.8H123.657V95.019a2.76,2.76,0,1,0-5.52,0V135.8h-5.52V78.665a2.76,2.76,0,0,0-2.76-2.76H92.19a2.76,2.76,0,0,0-2.76,2.76V135.8H83.91V97.987a2.76,2.76,0,0,0-2.76-2.76H63.484a2.76,2.76,0,0,0-2.76,2.76V135.8H55.2V113.823a2.76,2.76,0,0,0-2.76-2.76H34.778a2.76,2.76,0,0,0-2.76,2.76V135.8H8.281a2.763,2.763,0,0,1-2.76-2.76V8.281a2.763,2.763,0,0,1,2.76-2.76H79.487V23.738a8.29,8.29,0,0,0,8.281,8.281h18.217v33.95a2.76,2.76,0,1,0,5.52,0V29.259a2.761,2.761,0,0,0-.808-1.952L84.2.808A2.761,2.761,0,0,0,82.247,0H8.281A8.29,8.29,0,0,0,0,8.281V133.041a8.29,8.29,0,0,0,8.281,8.281H138.562a2.76,2.76,0,0,0,2.76-2.76V60.379A2.76,2.76,0,0,0,138.562,57.619ZM85.007,9.424,102.081,26.5H87.767a2.763,2.763,0,0,1-2.76-2.76ZM49.683,135.8H37.539V116.584H49.683Zm28.706,0H66.245V100.747H78.389Zm28.706,0H94.951V81.426H107.1Z" fill="#034ea2"/>
        </g>
      </g>
      <g id="Group_2313-2" data-name="Group 2313" transform="translate(118.136 81.395)">
        <g id="Group_2312-2" data-name="Group 2312">
          <path id="Path_2842-2" data-name="Path 2842" d="M432.712,295.7a2.759,2.759,0,1,0,.809,1.951A2.77,2.77,0,0,0,432.712,295.7Z" transform="translate(-428 -294.89)" fill="#034ea2"/>
        </g>
      </g>
      <g id="Group_2315" data-name="Group 2315" transform="translate(14.795 15.106)">
        <g id="Group_2314" data-name="Group 2314">
          <path id="Path_2843" data-name="Path 2843" d="M78.989,54.729a2.76,2.76,0,0,0-2.76,2.76v4.965a25.388,25.388,0,1,0,28,28h4.965a2.76,2.76,0,0,0,2.76-2.76A33,33,0,0,0,78.989,54.729Zm0,52.83a19.867,19.867,0,0,1-2.76-39.542V87.692a2.76,2.76,0,0,0,2.76,2.76H98.664A19.9,19.9,0,0,1,78.989,107.559Zm2.76-22.626h0V60.387a27.5,27.5,0,0,1,24.545,24.545Z" transform="translate(-53.602 -54.729)" fill="#034ea2"/>
        </g>
      </g>
      <g id="Group_2317" data-name="Group 2317" transform="translate(14.905 81.219)">
        <g id="Group_2316" data-name="Group 2316">
          <path id="Path_2844" data-name="Path 2844" d="M109.48,294.25H56.76a2.76,2.76,0,0,0,0,5.52h52.72a2.76,2.76,0,1,0,0-5.52Z" transform="translate(-54 -294.25)" fill="#034ea2"/>
        </g>
      </g>
      <g id="Group_2319-2" data-name="Group 2319" transform="translate(14.905 94.537)">
        <g id="Group_2318-2" data-name="Group 2318">
          <path id="Path_2845-2" data-name="Path 2845" d="M74.425,342.5H56.76a2.76,2.76,0,0,0,0,5.52H74.425a2.76,2.76,0,0,0,0-5.52Z" transform="translate(-54 -342.5)" fill="#034ea2"/>
        </g>
      </g>
      <g id="Group_2321-2" data-name="Group 2321" transform="translate(46.393 94.537)">
        <g id="Group_2320-2" data-name="Group 2320">
          <path id="Path_2846-2" data-name="Path 2846" d="M172.792,343.309a2.758,2.758,0,1,0,.809,1.951A2.781,2.781,0,0,0,172.792,343.309Z" transform="translate(-170.08 -342.5)" fill="#034ea2"/>
        </g>
      </g>
    </g>
  </g>
</svg>
