<svg xmlns="http://www.w3.org/2000/svg" width="65.508" height="68.551" viewBox="0 0 65.508 68.551">
  <g id="Group_2325" data-name="Group 2325" transform="translate(-883.413 -1352.725)">
    <g id="noun_credible_2041372" transform="translate(889.413 1356.725)">
      <path id="Path_2634" data-name="Path 2634" d="M64.25,14.625A14.625,14.625,0,1,0,49.625,29.25,14.625,14.625,0,0,0,64.25,14.625ZM49.625,2.017Z" transform="translate(-17.349)" fill="#f9e7b5"/>
      <path id="Path_2635" data-name="Path 2635" d="M93.044,74.567a1.367,1.367,0,0,0-1.135-.888L89.388,73.3l-1.13-2.4a1.3,1.3,0,0,0-2.426,0L84.7,73.3l-2.522.383a1.367,1.367,0,0,0-1.109.888,1.387,1.387,0,0,0,.378,1.412l1.841,1.881-.439,2.673a1.432,1.432,0,0,0,.287,1.185,1.336,1.336,0,0,0,1.679.232L87.058,80.7l2.229,1.225a1.513,1.513,0,0,0,.736.2,1.241,1.241,0,0,0,.948-.434,1.432,1.432,0,0,0,.287-1.185l-.439-2.673,1.846-1.886A1.387,1.387,0,0,0,93.044,74.567Zm-4.377,2.612.383,2.335L87.058,78.4l-1.992,1.094.383-2.33-1.669-1.7,2.3-.353.978-2.053.978,2.078,2.3.353Z" transform="translate(-40.157 -34.726)" fill="#f9e7b5"/>
      <path id="Path_2636" data-name="Path 2636" d="M26.138,56.017h3.137A16.723,16.723,0,0,1,26.365,54h-.227A16.333,16.333,0,0,0,10,70.471v3.7h2.017v-3.7A14.313,14.313,0,0,1,26.138,56.017Z" transform="translate(-4.957 -26.768)" fill="#f9e7b5"/>
      <path id="Path_2637" data-name="Path 2637" d="M92.923,87.93V70.471A16.381,16.381,0,0,0,76.68,54H54.417s-11.8,4.478-15.74,13.717c-.493,10.057,0,23.241,0,23.241l50.89.36A3.379,3.379,0,0,0,92.923,87.93Z" transform="translate(-33.415 -26.768)" fill="#f9e7b5"/>
      <path id="Path_2638" data-name="Path 2638" d="M57.741,61.607a16.585,16.585,0,0,1-2.017-.277L54.07,72.425A6.99,6.99,0,0,1,55.7,75.168Z" transform="translate(-26.802 -30.401)" fill="#f9e7b5"/>
      <path id="Path_2639" data-name="Path 2639" d="M71.65,83.913A1.009,1.009,0,0,0,72,83.006L68.947,61.26a16.606,16.606,0,0,1-2.017.3L69.9,82.743h0a5.174,5.174,0,0,1-.358,2.95Z" transform="translate(-33.177 -30.366)" fill="#f9e7b5"/>
    </g>
    <g id="noun_credible_2041372-2" data-name="noun_credible_2041372" transform="translate(883.413 1352.725)">
      <path id="Path_2634-2" data-name="Path 2634" d="M64.25,14.625A14.625,14.625,0,1,0,49.625,29.25,14.625,14.625,0,0,0,64.25,14.625ZM49.625,27.232A12.608,12.608,0,1,1,62.232,14.625,12.608,12.608,0,0,1,49.625,27.232Z" transform="translate(-17.349)" fill="#034ea2"/>
      <path id="Path_2635-2" data-name="Path 2635" d="M93.044,74.567a1.367,1.367,0,0,0-1.135-.888L89.388,73.3l-1.13-2.4a1.3,1.3,0,0,0-2.426,0L84.7,73.3l-2.522.383a1.367,1.367,0,0,0-1.109.888,1.387,1.387,0,0,0,.378,1.412l1.841,1.881-.439,2.673a1.432,1.432,0,0,0,.287,1.185,1.336,1.336,0,0,0,1.679.232L87.058,80.7l2.229,1.225a1.513,1.513,0,0,0,.736.2,1.241,1.241,0,0,0,.948-.434,1.432,1.432,0,0,0,.287-1.185l-.439-2.673,1.846-1.886A1.387,1.387,0,0,0,93.044,74.567Zm-4.377,2.612.383,2.335L87.058,78.4l-1.992,1.094.383-2.33-1.669-1.7,2.3-.353.978-2.053.978,2.078,2.3.353Z" transform="translate(-40.157 -34.726)" fill="#034ea2"/>
      <path id="Path_2636-2" data-name="Path 2636" d="M26.138,56.017h3.137A16.723,16.723,0,0,1,26.365,54h-.227A16.333,16.333,0,0,0,10,70.471v3.7h2.017v-3.7A14.313,14.313,0,0,1,26.138,56.017Z" transform="translate(-4.957 -26.768)" fill="#034ea2"/>
      <path id="Path_2637-2" data-name="Path 2637" d="M92.571,87.93V70.471A16.33,16.33,0,0,0,76.433,54h-.252a16.743,16.743,0,0,1-2.91,2.017h3.162A14.3,14.3,0,0,1,90.554,70.471V87.93A1.346,1.346,0,0,1,89.232,89.3H67.709A5.331,5.331,0,0,1,66.7,91.319H89.237A3.369,3.369,0,0,0,92.571,87.93Z" transform="translate(-33.063 -26.768)" fill="#034ea2"/>
      <path id="Path_2638-2" data-name="Path 2638" d="M57.741,61.607a16.585,16.585,0,0,1-2.017-.277L54.07,72.425A6.99,6.99,0,0,1,55.7,75.168Z" transform="translate(-26.802 -30.401)" fill="#034ea2"/>
      <path id="Path_2639-2" data-name="Path 2639" d="M71.65,83.913A1.009,1.009,0,0,0,72,83.006L68.947,61.26a16.606,16.606,0,0,1-2.017.3L69.9,82.743h0a5.174,5.174,0,0,1-.358,2.95Z" transform="translate(-33.177 -30.366)" fill="#034ea2"/>
      <path id="Path_2640" data-name="Path 2640" d="M41.843,91.748H37.587a9.9,9.9,0,0,0,.3-2.249c-.131-1.231-.434-4.11-2.683-5.144a3.455,3.455,0,0,0-3.7.479,3.978,3.978,0,0,0-1.236,3.53v1.009a40.62,40.62,0,0,1-2.017,3.53l-.207.343V92.081a1.009,1.009,0,0,0-1.009-1.009H22.009A1.009,1.009,0,0,0,21,92.081v13.112a1.009,1.009,0,0,0,1.009,1.009h5.043a1.009,1.009,0,0,0,.963-.731h.7a4.317,4.317,0,0,0,1.261.625,2.018,2.018,0,0,0,.54.076h9.335a3.354,3.354,0,0,0,3.344-3.747,3.328,3.328,0,0,0,.857-2.234,3.383,3.383,0,0,0-.061-.63,3.318,3.318,0,0,0,.686-2.017,3.379,3.379,0,0,0-.076-.716,3.318,3.318,0,0,0,.61-1.932A3.183,3.183,0,0,0,41.843,91.748Zm-15.8,12.436H23.017V93.09h3.026Zm15.8-7.963H41.51a1.326,1.326,0,0,1-.207,2.643h-.565a1.331,1.331,0,0,1-.055,2.658h-.777a1.331,1.331,0,0,1-.061,2.658H30.531a13.826,13.826,0,0,1-1.261-.681.908.908,0,0,0-.318-.045,7.083,7.083,0,0,1-.893,0V95.788s1.326-.812,1.367-.9c.171-.378,2.875-4.488,2.875-5.3v-.837c0-.827-.217-1.765.5-2.36a1.427,1.427,0,0,1,1.568-.2c1.145.5,1.4,2.426,1.513,3.53a18.872,18.872,0,0,1-.938,4.034h6.894c.746,0,1.346.388,1.346,1.125a1.336,1.336,0,0,1-1.346,1.346Z" transform="translate(-10.41 -41.651)" fill="#034ea2"/>
      <circle id="Ellipse_201" data-name="Ellipse 201" cx="1.082" cy="1.082" r="1.082" transform="translate(0.166 56.09)" fill="#034ea2"/>
      <path id="Path_2641" data-name="Path 2641" d="M1.009,105.017H7.565a1.009,1.009,0,1,0,0-2.017H1.009a1.009,1.009,0,1,0,0,2.017Z" transform="translate(0 -51.057)" fill="#034ea2"/>
      <path id="Path_2642" data-name="Path 2642" d="M1.009,121.017H7.565a1.009,1.009,0,0,0,0-2.017H1.009a1.009,1.009,0,0,0,0,2.017Z" transform="translate(0 -58.988)" fill="#034ea2"/>
      <path id="Path_2643" data-name="Path 2643" d="M11.53,111H9.009a1.009,1.009,0,0,0,0,2.017H11.53a1.009,1.009,0,0,0,0-2.017Z" transform="translate(-3.966 -55.022)" fill="#034ea2"/>
    </g>
  </g>
</svg>
