<svg xmlns="http://www.w3.org/2000/svg" width="69.889" height="72.886" viewBox="0 0 69.889 72.886">
  <g id="Group_2329" data-name="Group 2329" transform="translate(-877.848 -1349.849)">
    <g id="risk" transform="translate(872.729 1346.654)">
      <path id="Path_2779" data-name="Path 2779" d="M102.934,93.262A21.243,21.243,0,1,0,124.177,114.5,21.243,21.243,0,0,0,102.934,93.262Zm0,37.2A15.955,15.955,0,1,1,118.889,114.5,15.955,15.955,0,0,1,102.934,130.46Zm0,0" transform="translate(-70.799 -81.294)" fill="none"/>
      <path id="Path_2780" data-name="Path 2780" d="M212.746,93.262c-.342,0-.682.01-1.02.026a21.241,21.241,0,0,1,0,42.434c.338.016.678.026,1.02.026a21.243,21.243,0,0,0,0-42.486Zm0,0" transform="translate(-180.611 -81.294)" fill="none"/>
      <path id="Path_2781" data-name="Path 2781" d="M102.934,135.751c.342,0,.682-.01,1.02-.026a21.241,21.241,0,0,1,0-42.434c-.338-.016-.678-.026-1.02-.026a21.243,21.243,0,1,0,0,42.486Zm0,0" transform="translate(-70.799 -81.297)" fill="none"/>
      <path id="Path_2782" data-name="Path 2782" d="M134.234,127.444a15.956,15.956,0,1,0,13.145,18.34,15.956,15.956,0,0,0-13.145-18.34Zm0,0" transform="translate(-99.5 -109.979)" fill="none"/>
      <g id="Group_2233" data-name="Group 2233" transform="translate(8.119 9.194)">
        <path id="Path_2784" data-name="Path 2784" d="M304.344,319.172a.457.457,0,0,1-.325-.137l-5.2-5.292a.473.473,0,0,1,.04-.7,15.324,15.324,0,0,0,1.36-1.225,15.537,15.537,0,0,0,1.2-1.384.456.456,0,0,1,.334-.177.451.451,0,0,1,.352.136l5.2,5.293a.473.473,0,0,1,.118.455.464.464,0,0,1-.33.329,3.175,3.175,0,0,0-1.473.848,3.255,3.255,0,0,0-.833,1.5.457.457,0,0,1-.446.353Zm-.189-1.322a4.163,4.163,0,0,1,.818-1.193,4.094,4.094,0,0,1,1.172-.832Zm1.143-.862h0Zm0,0" transform="translate(-259.779 -271.555)" fill="#f9e7b5" stroke="#f9e7b5" stroke-width="0.5"/>
        <path id="Path_2785" data-name="Path 2785" d="M129.811,159.505a18.12,18.12,0,1,1,18.121-18.12A18.141,18.141,0,0,1,129.811,159.505Z" transform="translate(-105.911 -117.485)" fill="none" stroke="#034ea2" stroke-width="2"/>
        <path id="Path_2786" data-name="Path 2786" d="M101.591,137.066a23.9,23.9,0,1,1,23.9-23.9A23.927,23.927,0,0,1,101.591,137.066Z" transform="translate(-77.691 -89.265)" fill="#f9e7b5" stroke="#f9e7b5" stroke-width="2"/>
      </g>
      <path id="Path_2788" data-name="Path 2788" d="M367.469,379.04a4.942,4.942,0,0,1-6.988,0l-12.112-12.112a4.942,4.942,0,1,1,6.988-6.989l12.112,12.113A4.941,4.941,0,0,1,367.469,379.04Zm0,0" transform="translate(-294.781 -305.276)" fill="none"/>
      <path id="Path_2789" data-name="Path 2789" d="M351.873,359.939a4.92,4.92,0,0,0-.8,1.061,4.939,4.939,0,0,1,5.927.8l12.112,12.112a4.939,4.939,0,0,1,.8,5.927,4.927,4.927,0,0,0,1.061-7.79l-12.112-12.113a4.942,4.942,0,0,0-6.988,0Zm0,0" transform="translate(-298.284 -305.276)" fill="none"/>
      <path id="Path_2790" data-name="Path 2790" d="M360.613,377.741a5.546,5.546,0,0,1-3.934-1.627L344.567,364a5.563,5.563,0,1,1,7.868-7.868l12.112,12.113a5.561,5.561,0,0,1-3.934,9.495Zm3.494-2.067h0Zm0,0" transform="translate(-291.419 -301.911)" fill="#f9e7b5" stroke="#f9e7b5" stroke-width="0.5"/>
    </g>
    <g id="risk-2" data-name="risk" transform="translate(870.729 1341.654)">
      <path id="Path_2779-2" data-name="Path 2779" d="M102.934,93.262A21.243,21.243,0,1,0,124.177,114.5,21.243,21.243,0,0,0,102.934,93.262Zm0,37.2A15.955,15.955,0,1,1,118.889,114.5,15.955,15.955,0,0,1,102.934,130.46Zm0,0" transform="translate(-70.799 -81.294)" fill="none"/>
      <path id="Path_2780-2" data-name="Path 2780" d="M212.746,93.262c-.342,0-.682.01-1.02.026a21.241,21.241,0,0,1,0,42.434c.338.016.678.026,1.02.026a21.243,21.243,0,0,0,0-42.486Zm0,0" transform="translate(-180.611 -81.294)" fill="none"/>
      <path id="Path_2781-2" data-name="Path 2781" d="M102.934,135.751c.342,0,.682-.01,1.02-.026a21.241,21.241,0,0,1,0-42.434c-.338-.016-.678-.026-1.02-.026a21.243,21.243,0,1,0,0,42.486Zm0,0" transform="translate(-70.799 -81.297)" fill="none"/>
      <path id="Path_2782-2" data-name="Path 2782" d="M134.234,127.444a15.956,15.956,0,1,0,13.145,18.34,15.956,15.956,0,0,0-13.145-18.34Zm0,0" transform="translate(-99.5 -109.979)" fill="none"/>
      <g id="Group_2233-2" data-name="Group 2233" transform="translate(8.119 9.194)">
        <path id="Path_2784-2" data-name="Path 2784" d="M304.344,319.172a.457.457,0,0,1-.325-.137l-5.2-5.292a.473.473,0,0,1,.04-.7,15.324,15.324,0,0,0,1.36-1.225,15.537,15.537,0,0,0,1.2-1.384.456.456,0,0,1,.334-.177.451.451,0,0,1,.352.136l5.2,5.293a.473.473,0,0,1,.118.455.464.464,0,0,1-.33.329,3.175,3.175,0,0,0-1.473.848,3.255,3.255,0,0,0-.833,1.5.457.457,0,0,1-.446.353Zm-4.514-5.724,4.325,4.4a4.163,4.163,0,0,1,.818-1.193,4.094,4.094,0,0,1,1.172-.832l-4.325-4.4c-.309.376-.627.731-.95,1.059S300.2,313.133,299.83,313.448Zm5.468,3.541h0Zm0,0" transform="translate(-259.779 -271.555)" fill="#034ea2" stroke="#034ea2" stroke-width="0.5"/>
        <path id="Path_2785-2" data-name="Path 2785" d="M129.811,159.505a18.12,18.12,0,1,1,18.121-18.12A18.141,18.141,0,0,1,129.811,159.505Z" transform="translate(-105.911 -117.485)" fill="none" stroke="#034ea2" stroke-width="2"/>
        <path id="Path_2786-2" data-name="Path 2786" d="M101.591,137.066a23.9,23.9,0,1,1,23.9-23.9A23.927,23.927,0,0,1,101.591,137.066Z" transform="translate(-77.691 -89.265)" fill="none" stroke="#034ea2" stroke-width="2"/>
        <path id="Path_2787" data-name="Path 2787" d="M110.812,145.677a.68.68,0,0,1-.572-1.047,29.047,29.047,0,0,1,3.251-4.178.68.68,0,0,1,.993.93,27.683,27.683,0,0,0-3.1,3.982A.681.681,0,0,1,110.812,145.677Zm0,0" transform="translate(-104.618 -132.572)" fill="#034ea2"/>
      </g>
      <path id="Path_2788-2" data-name="Path 2788" d="M367.469,379.04a4.942,4.942,0,0,1-6.988,0l-12.112-12.112a4.942,4.942,0,1,1,6.988-6.989l12.112,12.113A4.941,4.941,0,0,1,367.469,379.04Zm0,0" transform="translate(-294.781 -305.276)" fill="none"/>
      <path id="Path_2789-2" data-name="Path 2789" d="M351.873,359.939a4.92,4.92,0,0,0-.8,1.061,4.939,4.939,0,0,1,5.927.8l12.112,12.112a4.939,4.939,0,0,1,.8,5.927,4.927,4.927,0,0,0,1.061-7.79l-12.112-12.113a4.942,4.942,0,0,0-6.988,0Zm0,0" transform="translate(-298.284 -305.276)" fill="none"/>
      <path id="Path_2790-2" data-name="Path 2790" d="M360.613,377.741a5.546,5.546,0,0,1-3.934-1.627L344.567,364a5.563,5.563,0,1,1,7.868-7.868l12.112,12.113a5.561,5.561,0,0,1-3.934,9.495ZM348.5,355.751a4.317,4.317,0,0,0-3.055,7.371l12.113,12.112a4.319,4.319,0,0,0,6.108-6.108l-12.112-12.112A4.306,4.306,0,0,0,348.5,355.751Zm15.606,19.924h0Zm0,0" transform="translate(-291.419 -301.911)" fill="#034ea2" stroke="#034ea2" stroke-width="0.5"/>
      <path id="Path_2791" data-name="Path 2791" d="M206.059,165.23V151.01A1.954,1.954,0,0,1,208,149.074a1.923,1.923,0,0,1,1.9,1.936v14.22a1.9,1.9,0,0,1-1.9,1.936A1.932,1.932,0,0,1,206.059,165.23ZM208,173.713a1.93,1.93,0,0,1-1.937-1.936v-.7A1.953,1.953,0,0,1,208,169.137a1.923,1.923,0,0,1,1.9,1.936v.7A1.9,1.9,0,0,1,208,173.713Zm0,0" transform="translate(-175.825 -128.427)" fill="#034ea2"/>
    </g>
  </g>
</svg>
