<svg xmlns="http://www.w3.org/2000/svg" width="166.051" height="161" viewBox="0 0 166.051 161">
  <g id="Group_2368" data-name="Group 2368" transform="translate(-11648 2497)">
    <g id="video-call" transform="translate(11657.471 -2487.529)">
      <g id="Group_2366" data-name="Group 2366" transform="translate(22.098 2.525)">
        <path id="Path_2881" data-name="Path 2881" d="M78,34.1V66.933h37.882l15.153,15.153V66.933h7.576V24H78Z" transform="translate(-78 -24)" fill="none"/>
      </g>
      <g id="Group_2367" data-name="Group 2367" transform="translate(0 0)">
        <path id="Path_2882" data-name="Path 2882" d="M155.741,26.1H93.867V18.525A2.525,2.525,0,0,0,91.341,16H30.729A2.525,2.525,0,0,0,28.2,18.525V26.1H16.839A8.849,8.849,0,0,0,8,34.941V138.486a8.849,8.849,0,0,0,8.839,8.839H64.88L61.85,154.9H48.408a2.525,2.525,0,0,0-2.525,2.525V165a2.525,2.525,0,0,0,2.525,2.525h75.765A2.525,2.525,0,0,0,126.7,165v-7.576a2.525,2.525,0,0,0-2.525-2.525H110.731l-3.031-7.576h48.041a8.849,8.849,0,0,0,8.839-8.839V34.941a8.849,8.849,0,0,0-8.839-8.839ZM67.292,154.9l3.031-7.576Z" transform="translate(-8 -16)" fill="#f9e7b5"/>
        <path id="Path_2883" data-name="Path 2883" d="M295.137,196.188h-5.051V183.561a15.169,15.169,0,0,0-15.153-15.153h-2.526v-2.039a15.157,15.157,0,0,0,7.576-13.114v-10.1c0-.073,0-.142-.009-.215a15.529,15.529,0,0,0-4.4-10.31A14.854,14.854,0,0,0,264.831,128a15.169,15.169,0,0,0-15.153,15.153v10.1a15.157,15.157,0,0,0,7.576,13.114v2.039h-2.525a15.169,15.169,0,0,0-15.153,15.153v12.627h-5.051a2.525,2.525,0,0,0,0,5.051h60.612a2.525,2.525,0,0,0,0-5.051Zm-40.408-53.035a10.113,10.113,0,0,1,10.1-10.1,10.235,10.235,0,0,1,9.158,6.105c-6.263,2.791-17.757,4.117-19.26,4.006Zm0,10.1v-5.026c.593.038,12.4-.676,20.2-3.975v9a10.1,10.1,0,0,1-20.2,0Zm12.627,15.153v2.525a2.525,2.525,0,1,1-5.051,0v-2.525Zm17.678,27.78h-5.051v-10.1a2.525,2.525,0,1,0-5.051,0v10.1h-20.2v-10.1a2.525,2.525,0,1,0-5.051,0v10.1h-5.051V183.561a10.113,10.113,0,0,1,10.1-10.1h2.961a7.573,7.573,0,0,0,14.282,0h2.961a10.113,10.113,0,0,1,10.1,10.1Z" transform="translate(-161.286 -92.643)" fill="#f9e7b5"/>
      </g>
    </g>
    <g id="video-call-2" data-name="video-call" transform="translate(11648 -2497)">
      <g id="Group_2366-2" data-name="Group 2366" transform="translate(22.098 2.525)">
        <path id="Path_2881-2" data-name="Path 2881" d="M78,34.1V66.933h37.882l15.153,15.153V66.933h7.576V24H78Z" transform="translate(-78 -24)" fill="none"/>
      </g>
      <g id="Group_2367-2" data-name="Group 2367" transform="translate(0 0)">
        <path id="Path_2882-2" data-name="Path 2882" d="M155.741,26.1H93.867V18.525A2.525,2.525,0,0,0,91.341,16H30.729A2.525,2.525,0,0,0,28.2,18.525V26.1H16.839A8.849,8.849,0,0,0,8,34.941V138.486a8.849,8.849,0,0,0,8.839,8.839H64.88L61.85,154.9H48.408a2.525,2.525,0,0,0-2.525,2.525V165a2.525,2.525,0,0,0,2.525,2.525h75.765A2.525,2.525,0,0,0,126.7,165v-7.576a2.525,2.525,0,0,0-2.525-2.525H110.731l-3.031-7.576h48.041a8.849,8.849,0,0,0,8.839-8.839V34.941a8.849,8.849,0,0,0-8.839-8.839ZM33.255,21.051H88.816V58.933H83.765a2.525,2.525,0,0,0-2.525,2.525v9.057L70.4,59.672a2.528,2.528,0,0,0-1.787-.739H33.255Zm88.392,138.9v2.525H50.933v-2.525ZM67.292,154.9l3.031-7.576h31.935l3.031,7.576Zm92.237-16.416a3.791,3.791,0,0,1-3.788,3.788H16.839a3.791,3.791,0,0,1-3.788-3.788v-6.314H159.529Zm0-11.365H13.051V34.941a3.791,3.791,0,0,1,3.788-3.788H28.2V61.459a2.525,2.525,0,0,0,2.525,2.525H67.567L81.978,78.4a2.525,2.525,0,0,0,4.312-1.787V63.984h5.051a2.525,2.525,0,0,0,2.525-2.525V31.153h61.875a3.791,3.791,0,0,1,3.788,3.788Z" transform="translate(-8 -16)" fill="#034ea2"/>
        <path id="Path_2883-2" data-name="Path 2883" d="M295.137,196.188h-5.051V183.561a15.169,15.169,0,0,0-15.153-15.153h-2.526v-2.039a15.157,15.157,0,0,0,7.576-13.114v-10.1c0-.073,0-.142-.009-.215a15.529,15.529,0,0,0-4.4-10.31A14.854,14.854,0,0,0,264.831,128a15.169,15.169,0,0,0-15.153,15.153v10.1a15.157,15.157,0,0,0,7.576,13.114v2.039h-2.525a15.169,15.169,0,0,0-15.153,15.153v12.627h-5.051a2.525,2.525,0,0,0,0,5.051h60.612a2.525,2.525,0,0,0,0-5.051Zm-40.408-53.035a10.113,10.113,0,0,1,10.1-10.1,10.235,10.235,0,0,1,9.158,6.105c-6.263,2.791-17.757,4.117-19.26,4.006Zm0,10.1v-5.026c.593.038,12.4-.676,20.2-3.975v9a10.1,10.1,0,0,1-20.2,0Zm12.627,15.153v2.525a2.525,2.525,0,1,1-5.051,0v-2.525Zm17.678,27.78h-5.051v-10.1a2.525,2.525,0,1,0-5.051,0v10.1h-20.2v-10.1a2.525,2.525,0,1,0-5.051,0v10.1h-5.051V183.561a10.113,10.113,0,0,1,10.1-10.1h2.961a7.573,7.573,0,0,0,14.282,0h2.961a10.113,10.113,0,0,1,10.1,10.1Z" transform="translate(-161.286 -92.643)" fill="#034ea2"/>
      </g>
    </g>
  </g>
</svg>
