<svg xmlns="http://www.w3.org/2000/svg" width="148.098" height="151.322" viewBox="0 0 148.098 151.322">
  <g id="Group_2324" data-name="Group 2324" transform="translate(-480 -3890)">
    <g id="reminder" transform="translate(489.594 3900)">
      <path id="Path_2856" data-name="Path 2856" d="M138.5,56a26.033,26.033,0,0,0-35.2-24.438A50.482,50.482,0,0,0,75.068,14.47V12a12,12,0,0,0-24,0v3.174A50.709,50.709,0,0,0,13.738,63.995v40H12.4a12,12,0,0,0,0,24H48.883a17.317,17.317,0,0,0,33.7,0H116.4a12,12,0,0,0,0-24h-1.334V81.966A26.145,26.145,0,0,0,138.5,55.995Zm-5.333,0h0ZM63.068,5.332Zm2.667,130.657Zm44-54.023Z" fill="#f9e7b5"/>
      <path id="Path_2857" data-name="Path 2857" d="M264.7,133.1a2.661,2.661,0,0,0,1.886-.781l7.134-7.133a2.668,2.668,0,0,0,.781-1.886V113.107a2.666,2.666,0,0,0-5.333,0V122.2l-6.353,6.352A2.666,2.666,0,0,0,264.7,133.1Zm0,0" transform="translate(-159.437 -67.304)" fill="#f9e7b5"/>
      <path id="Path_2858" data-name="Path 2858" d="M172.246,266.238h-5.333a2.667,2.667,0,1,0,0,5.334h5.333a2.667,2.667,0,1,0,0-5.334Zm0,0" transform="translate(-99.845 -162.247)" fill="#f9e7b5"/>
      <path id="Path_2859" data-name="Path 2859" d="M98.891,266.238H71.339a2.667,2.667,0,1,0,0,5.334H98.891a2.667,2.667,0,1,0,0-5.334Zm0,0" transform="translate(-41.601 -162.247)" fill="#f9e7b5"/>
    </g>
    <g id="reminder-2" data-name="reminder" transform="translate(479.594 3890)">
      <path id="Path_2856-2" data-name="Path 2856" d="M138.5,56a26.033,26.033,0,0,0-35.2-24.438A50.482,50.482,0,0,0,75.068,14.47V12a12,12,0,0,0-24,0v3.174A50.709,50.709,0,0,0,13.738,63.995v40H12.4a12,12,0,0,0,0,24H48.883a17.317,17.317,0,0,0,33.7,0H116.4a12,12,0,0,0,0-24h-1.334V81.966A26.145,26.145,0,0,0,138.5,55.995Zm-5.333,0A20.774,20.774,0,1,1,112.4,35.222,20.8,20.8,0,0,1,133.172,56ZM56.4,12a6.666,6.666,0,1,1,13.332,0v1.62a47.69,47.69,0,0,0-13.332.407Zm9.333,123.991a11.9,11.9,0,0,1-11.278-8H77.013A11.9,11.9,0,0,1,65.735,135.989ZM116.4,109.325a6.666,6.666,0,0,1,0,13.332H12.4a6.666,6.666,0,0,1,0-13.332h4a2.666,2.666,0,0,0,2.666-2.667V63.994a45.274,45.274,0,0,1,79.266-29.96A26.082,26.082,0,0,0,109.73,81.966v24.691a2.667,2.667,0,0,0,2.667,2.667Zm0,0" fill="#034ea2"/>
      <path id="Path_2857-2" data-name="Path 2857" d="M264.7,133.1a2.661,2.661,0,0,0,1.886-.781l7.134-7.133a2.668,2.668,0,0,0,.781-1.886V113.107a2.666,2.666,0,0,0-5.333,0V122.2l-6.353,6.352A2.666,2.666,0,0,0,264.7,133.1Zm0,0" transform="translate(-159.437 -67.304)" fill="#034ea2"/>
      <path id="Path_2858-2" data-name="Path 2858" d="M172.246,266.238h-5.333a2.667,2.667,0,1,0,0,5.334h5.333a2.667,2.667,0,1,0,0-5.334Zm0,0" transform="translate(-99.845 -162.247)" fill="#034ea2"/>
      <path id="Path_2859-2" data-name="Path 2859" d="M98.891,266.238H71.339a2.667,2.667,0,1,0,0,5.334H98.891a2.667,2.667,0,1,0,0-5.334Zm0,0" transform="translate(-41.601 -162.247)" fill="#034ea2"/>
    </g>
  </g>
</svg>
