<svg xmlns="http://www.w3.org/2000/svg" width="151.006" height="151.322" viewBox="0 0 151.006 151.322">
  <g id="Group_2335" data-name="Group 2335" transform="translate(-478.497 -2449)">
    <g id="destination" transform="translate(487.925 2459)">
      <g id="Group_2265" data-name="Group 2265" transform="translate(0.572 77.166)">
        <g id="Group_2264" data-name="Group 2264" transform="translate(0)">
          <path id="Path_2818" data-name="Path 2818" d="M25.592,279.566a25.1,25.1,0,0,0-15.587,5.447,66.5,66.5,0,0,0-5.939,6.812A25,25,0,0,0,.572,304.587c0,20.089,22.787,37.953,23.758,38.7a2.064,2.064,0,0,0,2.527,0c.97-.75,23.757-18.615,23.757-38.7A25.05,25.05,0,0,0,25.592,279.566Z" transform="translate(-0.572 -279.566)" fill="#f9e7b5"/>
        </g>
      </g>
      <g id="Group_2267" data-name="Group 2267" transform="translate(14.372 90.966)">
        <g id="Group_2266" data-name="Group 2266">
          <path id="Path_2819" data-name="Path 2819" d="M61.787,329.564a11.221,11.221,0,1,0,11.221,11.22A11.233,11.233,0,0,0,61.787,329.564Zm0,18.313a7.092,7.092,0,1,1,7.092-7.092A7.1,7.1,0,0,1,61.788,347.877Z" transform="translate(-50.567 -329.564)" fill="#f9e7b5"/>
        </g>
      </g>
      <g id="Group_2269" data-name="Group 2269" transform="translate(93.916 30.818)">
        <g id="Group_2268" data-name="Group 2268">
          <path id="Path_2820" data-name="Path 2820" d="M362.583,111.652a23.858,23.858,0,0,0-23.831,23.831c0,8.09,3.824,16.758,11.365,25.765a80.59,80.59,0,0,0,11.2,11.018,2.064,2.064,0,0,0,2.527,0,80.783,80.783,0,0,0,13.1-13.381c.694-.9,4.2-6.184,4.758-7.181,3.125-5.624,4.71-11.082,4.71-16.221A23.857,23.857,0,0,0,362.583,111.652Z" transform="translate(-338.752 -111.652)" fill="#f9e7b5"/>
        </g>
      </g>
      <g id="Group_2271" data-name="Group 2271" transform="translate(107.002 43.903)">
        <g id="Group_2270" data-name="Group 2270">
          <path id="Path_2821" data-name="Path 2821" d="M396.9,159.058A10.746,10.746,0,1,0,407.65,169.8,10.758,10.758,0,0,0,396.9,159.058Zm0,17.363a6.617,6.617,0,1,1,6.617-6.617A6.625,6.625,0,0,1,396.9,176.421Z" transform="translate(-386.159 -159.058)" fill="#f9e7b5"/>
        </g>
      </g>
      <g id="Group_2273" data-name="Group 2273" transform="translate(22.761 11.919)">
        <g id="Group_2272" data-name="Group 2272">
          <path id="Path_2822" data-name="Path 2822" d="M90.933,43.181a9.972,9.972,0,1,0,9.972,9.972A9.983,9.983,0,0,0,90.933,43.181Zm0,15.816a5.843,5.843,0,1,1,5.843-5.843A5.85,5.85,0,0,1,90.932,59Z" transform="translate(-80.961 -43.181)" fill="#f9e7b5"/>
        </g>
      </g>
      <g id="Group_2275" data-name="Group 2275" transform="translate(10.842)">
        <g id="Group_2274" data-name="Group 2274">
          <path id="Path_2823" data-name="Path 2823" d="M59.67,0A21.916,21.916,0,0,0,37.779,21.891a28.757,28.757,0,0,0,2.788,11.844c.471,1.038,3.7,6.583,4.353,7.516A73.084,73.084,0,0,0,58.407,55.542a2.064,2.064,0,0,0,2.527,0A73.639,73.639,0,0,0,71.167,45.479c6.9-8.238,10.4-16.174,10.4-23.587A21.917,21.917,0,0,0,59.67,0Z" transform="translate(-37.779)" fill="#f9e7b5"/>
        </g>
      </g>
      <g id="Group_2277" data-name="Group 2277" transform="translate(55.101 63.728)">
        <g id="Group_2276" data-name="Group 2276">
          <path id="Path_2824" data-name="Path 2824" d="M203.542,232.16l-2.522-1.1a2.064,2.064,0,0,0-1.654,3.783l2.522,1.1a2.064,2.064,0,1,0,1.654-3.783Z" transform="translate(-198.128 -230.884)" fill="#f9e7b5"/>
        </g>
      </g>
      <g id="Group_2279" data-name="Group 2279" transform="translate(95.453 81.368)">
        <g id="Group_2278" data-name="Group 2278">
          <path id="Path_2825" data-name="Path 2825" d="M349.735,296.067l-2.522-1.1a2.064,2.064,0,0,0-1.654,3.783l2.522,1.1a2.064,2.064,0,1,0,1.654-3.783Z" transform="translate(-344.321 -294.791)" fill="#f9e7b5"/>
        </g>
      </g>
      <g id="Group_2281" data-name="Group 2281" transform="translate(45.013 59.319)">
        <g id="Group_2280" data-name="Group 2280">
          <path id="Path_2826" data-name="Path 2826" d="M166.993,216.184l-2.522-1.1a2.064,2.064,0,0,0-1.654,3.783l2.522,1.1a2.064,2.064,0,1,0,1.654-3.783Z" transform="translate(-161.579 -214.908)" fill="#f9e7b5"/>
        </g>
      </g>
      <g id="Group_2283" data-name="Group 2283" transform="translate(34.925 54.909)">
        <g id="Group_2282" data-name="Group 2282">
          <path id="Path_2827" data-name="Path 2827" d="M130.445,200.207l-2.522-1.1a2.064,2.064,0,0,0-1.654,3.783l2.522,1.1a2.064,2.064,0,1,0,1.654-3.783Z" transform="translate(-125.031 -198.931)" fill="#f9e7b5"/>
        </g>
      </g>
      <g id="Group_2285" data-name="Group 2285" transform="translate(105.541 85.778)">
        <g id="Group_2284" data-name="Group 2284">
          <path id="Path_2828" data-name="Path 2828" d="M386.283,312.043l-2.522-1.1a2.064,2.064,0,1,0-1.654,3.783l2.522,1.1a2.064,2.064,0,1,0,1.654-3.783Z" transform="translate(-380.869 -310.767)" fill="#f9e7b5"/>
        </g>
      </g>
      <g id="Group_2287" data-name="Group 2287" transform="translate(85.366 76.958)">
        <g id="Group_2286" data-name="Group 2286">
          <path id="Path_2829" data-name="Path 2829" d="M313.187,280.09l-2.522-1.1a2.064,2.064,0,1,0-1.654,3.783l2.522,1.1a2.064,2.064,0,1,0,1.654-3.783Z" transform="translate(-307.773 -278.814)" fill="#f9e7b5"/>
        </g>
      </g>
      <g id="Group_2289" data-name="Group 2289" transform="translate(75.277 72.548)">
        <g id="Group_2288" data-name="Group 2288">
          <path id="Path_2830" data-name="Path 2830" d="M276.637,264.114l-2.522-1.1a2.064,2.064,0,0,0-1.654,3.783l2.522,1.1a2.064,2.064,0,1,0,1.654-3.783Z" transform="translate(-271.223 -262.838)" fill="#f9e7b5"/>
        </g>
      </g>
      <g id="Group_2291" data-name="Group 2291" transform="translate(65.189 68.138)">
        <g id="Group_2290" data-name="Group 2290">
          <path id="Path_2831" data-name="Path 2831" d="M240.089,248.136l-2.522-1.1a2.064,2.064,0,1,0-1.654,3.783l2.522,1.1a2.064,2.064,0,1,0,1.654-3.783Z" transform="translate(-234.675 -246.86)" fill="#f9e7b5"/>
        </g>
      </g>
      <g id="Group_2293" data-name="Group 2293" transform="translate(31.748 134.45)">
        <g id="Group_2292" data-name="Group 2292">
          <path id="Path_2832" data-name="Path 2832" d="M119.837,488.2a2.064,2.064,0,0,0-2.793-.851l-2.429,1.294a2.065,2.065,0,1,0,1.942,3.644l2.429-1.295A2.065,2.065,0,0,0,119.837,488.2Z" transform="translate(-113.521 -487.102)" fill="#f9e7b5"/>
        </g>
      </g>
      <g id="Group_2295" data-name="Group 2295" transform="translate(41.464 129.271)">
        <g id="Group_2294" data-name="Group 2294">
          <path id="Path_2833" data-name="Path 2833" d="M155.036,469.435a2.065,2.065,0,0,0-2.793-.851l-2.429,1.294a2.065,2.065,0,1,0,1.942,3.644l2.429-1.295A2.065,2.065,0,0,0,155.036,469.435Z" transform="translate(-148.72 -468.341)" fill="#f9e7b5"/>
        </g>
      </g>
      <g id="Group_2297" data-name="Group 2297" transform="translate(51.18 124.093)">
        <g id="Group_2296" data-name="Group 2296">
          <path id="Path_2834" data-name="Path 2834" d="M190.235,450.674a2.063,2.063,0,0,0-2.793-.851l-2.429,1.295a2.065,2.065,0,1,0,1.942,3.644l2.429-1.295A2.065,2.065,0,0,0,190.235,450.674Z" transform="translate(-183.92 -449.579)" fill="#f9e7b5"/>
        </g>
      </g>
      <g id="Group_2299" data-name="Group 2299" transform="translate(99.759 98.2)">
        <g id="Group_2298" data-name="Group 2298">
          <path id="Path_2835" data-name="Path 2835" d="M366.235,356.864a2.064,2.064,0,0,0-2.793-.851l-2.429,1.295a2.065,2.065,0,1,0,1.942,3.644l2.429-1.295A2.066,2.066,0,0,0,366.235,356.864Z" transform="translate(-359.919 -355.77)" fill="#f9e7b5"/>
        </g>
      </g>
      <g id="Group_2301" data-name="Group 2301" transform="translate(109.475 93.021)">
        <g id="Group_2300" data-name="Group 2300">
          <path id="Path_2836" data-name="Path 2836" d="M401.435,338.1a2.065,2.065,0,0,0-2.793-.851l-2.429,1.295a2.065,2.065,0,1,0,1.942,3.644l2.429-1.294A2.065,2.065,0,0,0,401.435,338.1Z" transform="translate(-395.119 -337.009)" fill="#f9e7b5"/>
        </g>
      </g>
      <g id="Group_2303" data-name="Group 2303" transform="translate(90.043 103.378)">
        <g id="Group_2302" data-name="Group 2302">
          <path id="Path_2837" data-name="Path 2837" d="M331.035,375.626a2.063,2.063,0,0,0-2.792-.851l-2.429,1.295a2.064,2.064,0,1,0,1.942,3.643l2.429-1.295A2.064,2.064,0,0,0,331.035,375.626Z" transform="translate(-324.72 -374.531)" fill="#f9e7b5"/>
        </g>
      </g>
      <g id="Group_2305" data-name="Group 2305" transform="translate(60.895 118.914)">
        <g id="Group_2304" data-name="Group 2304">
          <path id="Path_2838" data-name="Path 2838" d="M225.435,431.911a2.065,2.065,0,0,0-2.793-.851l-2.429,1.295A2.064,2.064,0,1,0,222.155,436l2.429-1.294A2.065,2.065,0,0,0,225.435,431.911Z" transform="translate(-219.119 -430.817)" fill="#f9e7b5"/>
        </g>
      </g>
      <g id="Group_2307" data-name="Group 2307" transform="translate(80.328 108.557)">
        <g id="Group_2306" data-name="Group 2306">
          <path id="Path_2839" data-name="Path 2839" d="M295.836,394.387a2.063,2.063,0,0,0-2.793-.851l-2.429,1.294a2.064,2.064,0,1,0,1.942,3.643l2.429-1.295A2.064,2.064,0,0,0,295.836,394.387Z" transform="translate(-289.521 -393.293)" fill="#f9e7b5"/>
        </g>
      </g>
      <g id="Group_2309" data-name="Group 2309" transform="translate(70.612 113.735)">
        <g id="Group_2308" data-name="Group 2308">
          <path id="Path_2840" data-name="Path 2840" d="M260.636,413.149a2.063,2.063,0,0,0-2.793-.851l-2.429,1.295a2.064,2.064,0,1,0,1.942,3.643l2.429-1.295A2.064,2.064,0,0,0,260.636,413.149Z" transform="translate(-254.32 -412.055)" fill="#f9e7b5"/>
        </g>
      </g>
    </g>
    <g id="destination-2" data-name="destination" transform="translate(477.925 2449)">
      <g id="Group_2265-2" data-name="Group 2265" transform="translate(0.572 77.166)">
        <g id="Group_2264-2" data-name="Group 2264" transform="translate(0)">
          <path id="Path_2818-2" data-name="Path 2818" d="M25.592,279.566a25.1,25.1,0,0,0-15.587,5.447,2.064,2.064,0,0,0,2.574,3.228,20.667,20.667,0,0,1,13.013-4.547,20.915,20.915,0,0,1,20.892,20.892c0,15.515-16.194,30.406-20.893,34.4-4.7-3.99-20.891-18.861-20.891-34.4a20.863,20.863,0,0,1,2.916-10.653,2.064,2.064,0,1,0-3.55-2.108A25,25,0,0,0,.572,304.587c0,20.089,22.787,37.953,23.758,38.7a2.064,2.064,0,0,0,2.527,0c.97-.75,23.757-18.615,23.757-38.7A25.05,25.05,0,0,0,25.592,279.566Z" transform="translate(-0.572 -279.566)" fill="#034ea2"/>
        </g>
      </g>
      <g id="Group_2267-2" data-name="Group 2267" transform="translate(14.372 90.966)">
        <g id="Group_2266-2" data-name="Group 2266">
          <path id="Path_2819-2" data-name="Path 2819" d="M61.787,329.564a11.221,11.221,0,1,0,11.221,11.22A11.233,11.233,0,0,0,61.787,329.564Zm0,18.313a7.092,7.092,0,1,1,7.092-7.092A7.1,7.1,0,0,1,61.788,347.877Z" transform="translate(-50.567 -329.564)" fill="#034ea2"/>
        </g>
      </g>
      <g id="Group_2269-2" data-name="Group 2269" transform="translate(93.916 30.818)">
        <g id="Group_2268-2" data-name="Group 2268">
          <path id="Path_2820-2" data-name="Path 2820" d="M362.583,111.652a23.858,23.858,0,0,0-23.831,23.831c0,8.09,3.824,16.758,11.365,25.765a80.59,80.59,0,0,0,11.2,11.018,2.064,2.064,0,0,0,2.527,0,80.783,80.783,0,0,0,13.1-13.381,2.064,2.064,0,1,0-3.274-2.515,79.3,79.3,0,0,1-11.087,11.589c-4.533-3.863-19.7-17.885-19.7-32.476a19.7,19.7,0,1,1,39.4,0c0,4.429-1.41,9.212-4.19,14.216a2.064,2.064,0,1,0,3.609,2c3.125-5.624,4.71-11.082,4.71-16.221A23.857,23.857,0,0,0,362.583,111.652Z" transform="translate(-338.752 -111.652)" fill="#034ea2"/>
        </g>
      </g>
      <g id="Group_2271-2" data-name="Group 2271" transform="translate(107.002 43.903)">
        <g id="Group_2270-2" data-name="Group 2270">
          <path id="Path_2821-2" data-name="Path 2821" d="M396.9,159.058A10.746,10.746,0,1,0,407.65,169.8,10.758,10.758,0,0,0,396.9,159.058Zm0,17.363a6.617,6.617,0,1,1,6.617-6.617A6.625,6.625,0,0,1,396.9,176.421Z" transform="translate(-386.159 -159.058)" fill="#034ea2"/>
        </g>
      </g>
      <g id="Group_2273-2" data-name="Group 2273" transform="translate(22.761 11.919)">
        <g id="Group_2272-2" data-name="Group 2272">
          <path id="Path_2822-2" data-name="Path 2822" d="M90.933,43.181a9.972,9.972,0,1,0,9.972,9.972A9.983,9.983,0,0,0,90.933,43.181Zm0,15.816a5.843,5.843,0,1,1,5.843-5.843A5.85,5.85,0,0,1,90.932,59Z" transform="translate(-80.961 -43.181)" fill="#034ea2"/>
        </g>
      </g>
      <g id="Group_2275-2" data-name="Group 2275" transform="translate(10.842)">
        <g id="Group_2274-2" data-name="Group 2274">
          <path id="Path_2823-2" data-name="Path 2823" d="M59.67,0A21.916,21.916,0,0,0,37.779,21.891a28.757,28.757,0,0,0,2.788,11.844,2.064,2.064,0,1,0,3.76-1.7,24.687,24.687,0,0,1-2.419-10.139,17.763,17.763,0,1,1,35.525,0c0,13.09-13.513,25.7-17.764,29.34A70.289,70.289,0,0,1,48.3,38.879a2.064,2.064,0,0,0-3.379,2.372A73.084,73.084,0,0,0,58.407,55.542a2.064,2.064,0,0,0,2.527,0A73.639,73.639,0,0,0,71.167,45.479c6.9-8.238,10.4-16.174,10.4-23.587A21.917,21.917,0,0,0,59.67,0Z" transform="translate(-37.779)" fill="#034ea2"/>
        </g>
      </g>
      <g id="Group_2277-2" data-name="Group 2277" transform="translate(55.101 63.728)">
        <g id="Group_2276-2" data-name="Group 2276">
          <path id="Path_2824-2" data-name="Path 2824" d="M203.542,232.16l-2.522-1.1a2.064,2.064,0,0,0-1.654,3.783l2.522,1.1a2.064,2.064,0,1,0,1.654-3.783Z" transform="translate(-198.128 -230.884)" fill="#034ea2"/>
        </g>
      </g>
      <g id="Group_2279-2" data-name="Group 2279" transform="translate(95.453 81.368)">
        <g id="Group_2278-2" data-name="Group 2278">
          <path id="Path_2825-2" data-name="Path 2825" d="M349.735,296.067l-2.522-1.1a2.064,2.064,0,0,0-1.654,3.783l2.522,1.1a2.064,2.064,0,1,0,1.654-3.783Z" transform="translate(-344.321 -294.791)" fill="#034ea2"/>
        </g>
      </g>
      <g id="Group_2281-2" data-name="Group 2281" transform="translate(45.013 59.319)">
        <g id="Group_2280-2" data-name="Group 2280">
          <path id="Path_2826-2" data-name="Path 2826" d="M166.993,216.184l-2.522-1.1a2.064,2.064,0,0,0-1.654,3.783l2.522,1.1a2.064,2.064,0,1,0,1.654-3.783Z" transform="translate(-161.579 -214.908)" fill="#034ea2"/>
        </g>
      </g>
      <g id="Group_2283-2" data-name="Group 2283" transform="translate(34.925 54.909)">
        <g id="Group_2282-2" data-name="Group 2282">
          <path id="Path_2827-2" data-name="Path 2827" d="M130.445,200.207l-2.522-1.1a2.064,2.064,0,0,0-1.654,3.783l2.522,1.1a2.064,2.064,0,1,0,1.654-3.783Z" transform="translate(-125.031 -198.931)" fill="#034ea2"/>
        </g>
      </g>
      <g id="Group_2285-2" data-name="Group 2285" transform="translate(105.541 85.778)">
        <g id="Group_2284-2" data-name="Group 2284">
          <path id="Path_2828-2" data-name="Path 2828" d="M386.283,312.043l-2.522-1.1a2.064,2.064,0,1,0-1.654,3.783l2.522,1.1a2.064,2.064,0,1,0,1.654-3.783Z" transform="translate(-380.869 -310.767)" fill="#034ea2"/>
        </g>
      </g>
      <g id="Group_2287-2" data-name="Group 2287" transform="translate(85.366 76.958)">
        <g id="Group_2286-2" data-name="Group 2286">
          <path id="Path_2829-2" data-name="Path 2829" d="M313.187,280.09l-2.522-1.1a2.064,2.064,0,1,0-1.654,3.783l2.522,1.1a2.064,2.064,0,1,0,1.654-3.783Z" transform="translate(-307.773 -278.814)" fill="#034ea2"/>
        </g>
      </g>
      <g id="Group_2289-2" data-name="Group 2289" transform="translate(75.277 72.548)">
        <g id="Group_2288-2" data-name="Group 2288">
          <path id="Path_2830-2" data-name="Path 2830" d="M276.637,264.114l-2.522-1.1a2.064,2.064,0,0,0-1.654,3.783l2.522,1.1a2.064,2.064,0,1,0,1.654-3.783Z" transform="translate(-271.223 -262.838)" fill="#034ea2"/>
        </g>
      </g>
      <g id="Group_2291-2" data-name="Group 2291" transform="translate(65.189 68.138)">
        <g id="Group_2290-2" data-name="Group 2290">
          <path id="Path_2831-2" data-name="Path 2831" d="M240.089,248.136l-2.522-1.1a2.064,2.064,0,1,0-1.654,3.783l2.522,1.1a2.064,2.064,0,1,0,1.654-3.783Z" transform="translate(-234.675 -246.86)" fill="#034ea2"/>
        </g>
      </g>
      <g id="Group_2293-2" data-name="Group 2293" transform="translate(31.748 134.45)">
        <g id="Group_2292-2" data-name="Group 2292">
          <path id="Path_2832-2" data-name="Path 2832" d="M119.837,488.2a2.064,2.064,0,0,0-2.793-.851l-2.429,1.294a2.065,2.065,0,1,0,1.942,3.644l2.429-1.295A2.065,2.065,0,0,0,119.837,488.2Z" transform="translate(-113.521 -487.102)" fill="#034ea2"/>
        </g>
      </g>
      <g id="Group_2295-2" data-name="Group 2295" transform="translate(41.464 129.271)">
        <g id="Group_2294-2" data-name="Group 2294">
          <path id="Path_2833-2" data-name="Path 2833" d="M155.036,469.435a2.065,2.065,0,0,0-2.793-.851l-2.429,1.294a2.065,2.065,0,1,0,1.942,3.644l2.429-1.295A2.065,2.065,0,0,0,155.036,469.435Z" transform="translate(-148.72 -468.341)" fill="#034ea2"/>
        </g>
      </g>
      <g id="Group_2297-2" data-name="Group 2297" transform="translate(51.18 124.093)">
        <g id="Group_2296-2" data-name="Group 2296">
          <path id="Path_2834-2" data-name="Path 2834" d="M190.235,450.674a2.063,2.063,0,0,0-2.793-.851l-2.429,1.295a2.065,2.065,0,1,0,1.942,3.644l2.429-1.295A2.065,2.065,0,0,0,190.235,450.674Z" transform="translate(-183.92 -449.579)" fill="#034ea2"/>
        </g>
      </g>
      <g id="Group_2299-2" data-name="Group 2299" transform="translate(99.759 98.2)">
        <g id="Group_2298-2" data-name="Group 2298">
          <path id="Path_2835-2" data-name="Path 2835" d="M366.235,356.864a2.064,2.064,0,0,0-2.793-.851l-2.429,1.295a2.065,2.065,0,1,0,1.942,3.644l2.429-1.295A2.066,2.066,0,0,0,366.235,356.864Z" transform="translate(-359.919 -355.77)" fill="#034ea2"/>
        </g>
      </g>
      <g id="Group_2301-2" data-name="Group 2301" transform="translate(109.475 93.021)">
        <g id="Group_2300-2" data-name="Group 2300">
          <path id="Path_2836-2" data-name="Path 2836" d="M401.435,338.1a2.065,2.065,0,0,0-2.793-.851l-2.429,1.295a2.065,2.065,0,1,0,1.942,3.644l2.429-1.294A2.065,2.065,0,0,0,401.435,338.1Z" transform="translate(-395.119 -337.009)" fill="#034ea2"/>
        </g>
      </g>
      <g id="Group_2303-2" data-name="Group 2303" transform="translate(90.043 103.378)">
        <g id="Group_2302-2" data-name="Group 2302">
          <path id="Path_2837-2" data-name="Path 2837" d="M331.035,375.626a2.063,2.063,0,0,0-2.792-.851l-2.429,1.295a2.064,2.064,0,1,0,1.942,3.643l2.429-1.295A2.064,2.064,0,0,0,331.035,375.626Z" transform="translate(-324.72 -374.531)" fill="#034ea2"/>
        </g>
      </g>
      <g id="Group_2305-2" data-name="Group 2305" transform="translate(60.895 118.914)">
        <g id="Group_2304-2" data-name="Group 2304">
          <path id="Path_2838-2" data-name="Path 2838" d="M225.435,431.911a2.065,2.065,0,0,0-2.793-.851l-2.429,1.295A2.064,2.064,0,1,0,222.155,436l2.429-1.294A2.065,2.065,0,0,0,225.435,431.911Z" transform="translate(-219.119 -430.817)" fill="#034ea2"/>
        </g>
      </g>
      <g id="Group_2307-2" data-name="Group 2307" transform="translate(80.328 108.557)">
        <g id="Group_2306-2" data-name="Group 2306">
          <path id="Path_2839-2" data-name="Path 2839" d="M295.836,394.387a2.063,2.063,0,0,0-2.793-.851l-2.429,1.294a2.064,2.064,0,1,0,1.942,3.643l2.429-1.295A2.064,2.064,0,0,0,295.836,394.387Z" transform="translate(-289.521 -393.293)" fill="#034ea2"/>
        </g>
      </g>
      <g id="Group_2309-2" data-name="Group 2309" transform="translate(70.612 113.735)">
        <g id="Group_2308-2" data-name="Group 2308">
          <path id="Path_2840-2" data-name="Path 2840" d="M260.636,413.149a2.063,2.063,0,0,0-2.793-.851l-2.429,1.295a2.064,2.064,0,1,0,1.942,3.643l2.429-1.295A2.064,2.064,0,0,0,260.636,413.149Z" transform="translate(-254.32 -412.055)" fill="#034ea2"/>
        </g>
      </g>
    </g>
  </g>
</svg>
