<svg xmlns="http://www.w3.org/2000/svg" width="68.179" height="65.188" viewBox="0 0 68.179 65.188">
  <g id="Group_2328" data-name="Group 2328" transform="translate(-881 -1352)">
    <path id="positive-vote" d="M63.9,27.927a4.669,4.669,0,0,0-2.892-1.99,4.7,4.7,0,0,0-3.132-6.769,4.707,4.707,0,0,0-.243-4.783,4.665,4.665,0,0,0-2.892-1.99,4.7,4.7,0,0,0-6.757-6.105l-4.68,3.1a29.245,29.245,0,0,0-7.9-2.674,21.728,21.728,0,0,0-3.015-3.648L30.448,1.189a4.236,4.236,0,0,0-6.481,5.381c.048.074-8.837,21.664-2.117,21.857,0,.034,13.833,21.038,15.752,21.581s0-1.462-.4-2.077l-.091-.137,1.331-.882a4.515,4.515,0,0,1,3.217-.7,6.535,6.535,0,0,0,4.658-1.007L57.358,37.9c-.076.958,2.062.157,2.1-1.393l3.112-2.061A4.7,4.7,0,0,0,63.9,27.927ZM41.334,10.69l-3.1,2.051-.61-1.643a21.689,21.689,0,0,0-.87-2.015,27.208,27.208,0,0,1,4.577,1.606ZM12.709,31.164h0S20.325,26.121,12.709,31.164ZM35.616,49.6a.734.734,0,0,1-.316.468h0l-6.02,3.986L18.108,37.4a1.014,1.014,0,0,0-1.684,1.129L27.59,55.178,19,60.869a27.544,27.544,0,0,1-16.119-20.8L12.985,33.4l1.163,1.736A1.014,1.014,0,1,0,15.832,34l-1.155-1.723,6.152-4.061a.738.738,0,0,1,1.022.208L35.509,49.05a.731.731,0,0,1,.107.553Z" transform="translate(884.499 1356.319)" fill="#f9e7b5"/>
    <path id="positive-vote-2" data-name="positive-vote" d="M63.9,27.927a4.669,4.669,0,0,0-2.892-1.99,4.7,4.7,0,0,0-3.132-6.769,4.707,4.707,0,0,0-.243-4.783,4.665,4.665,0,0,0-2.892-1.99,4.7,4.7,0,0,0-6.757-6.105l-4.68,3.1a29.245,29.245,0,0,0-7.9-2.674,21.728,21.728,0,0,0-3.015-3.648L30.448,1.189a4.236,4.236,0,0,0-6.481,5.381q.076.116.15.232A29.487,29.487,0,1,0,57.728,45.718a1.013,1.013,0,1,0-1.906-.688A27.5,27.5,0,0,1,21.316,61.764L29.563,56.3h0l6.854-4.539h0a2.765,2.765,0,0,0,.779-3.831l-.091-.137,1.331-.882a4.515,4.515,0,0,1,3.217-.7,6.535,6.535,0,0,0,4.658-1.007L57.358,37.9a27.518,27.518,0,0,1-.374,2.847,1.013,1.013,0,0,0,.812,1.182.988.988,0,0,0,.186.017,1.014,1.014,0,0,0,1-.829,29.644,29.644,0,0,0,.484-4.61l3.112-2.061A4.7,4.7,0,0,0,63.9,27.927ZM41.334,10.69l-3.1,2.051-.61-1.643a21.689,21.689,0,0,0-.87-2.015,27.208,27.208,0,0,1,4.577,1.606Zm-32.1,7.027A27.462,27.462,0,0,1,25.087,8.68a12.522,12.522,0,0,1,.632,7.584L23.247,26.941a2.759,2.759,0,0,0-3.538-.412l-7,4.635h0L2.612,37.85c-.055-.712-.084-1.43-.084-2.147A27.451,27.451,0,0,1,9.236,17.717ZM35.616,49.6a.734.734,0,0,1-.316.468h0l-6.02,3.986L18.108,37.4a1.014,1.014,0,0,0-1.684,1.129L27.59,55.178,19,60.869a27.544,27.544,0,0,1-16.119-20.8L12.985,33.4l1.163,1.736A1.014,1.014,0,1,0,15.832,34l-1.155-1.723,6.152-4.061a.738.738,0,0,1,1.022.208L35.509,49.05a.731.731,0,0,1,.107.553ZM62.6,31.055a2.656,2.656,0,0,1-1.144,1.7L57.9,35.108l0,0-12.7,8.409a4.513,4.513,0,0,1-3.217.7,6.539,6.539,0,0,0-4.658,1.007l-1.331.882L24.8,29.212l2.892-12.491a14.563,14.563,0,0,0-1.066-9.56.993.993,0,0,0-.043-.09,14.338,14.338,0,0,0-.928-1.622,2.209,2.209,0,0,1,3.38-2.806l1.936,1.877A19.8,19.8,0,0,1,35.726,11.8l1.054,2.84.006.015.008.02c.007.017.014.033.022.047a1,1,0,0,0,.07.125,1.013,1.013,0,0,0,1.4.285L49.1,7.978a2.674,2.674,0,1,1,2.953,4.459l-.938.622h0l-2.093,1.387-.008.005-.033.024a1.013,1.013,0,0,0,1.16,1.66l2.095-1.388a2.674,2.674,0,0,1,2.952,4.461l-3.033,2.009a1.013,1.013,0,1,0,1.119,1.69l.469-.311,1.624-1.076a2.674,2.674,0,0,1,2.953,4.46l-1.515,1L56.782,27l-1.494.989a1.014,1.014,0,1,0,1.119,1.69l.469-.311h0L58.5,28.293a2.674,2.674,0,0,1,4.1,2.762Zm0,0" transform="translate(880.499 1352)" fill="#034ea2"/>
  </g>
</svg>
