<svg xmlns="http://www.w3.org/2000/svg" width="170.121" height="151" viewBox="0 0 170.121 151">
  <g id="Group_2331" data-name="Group 2331" transform="translate(-464 -1009)">
    <rect id="Rectangle_667" data-name="Rectangle 667" width="141" height="141" rx="38" transform="translate(474 1019)" fill="#f9e7b5"/>
    <path id="writing" d="M134.694,120.039a2.492,2.492,0,0,0-3.439.77,33.554,33.554,0,0,1-28.463,15.665H38.665A33.72,33.72,0,0,1,4.984,102.791V43.068a2.492,2.492,0,0,0-4.984,0v59.722a38.709,38.709,0,0,0,38.665,38.666h64.126a38.512,38.512,0,0,0,32.671-17.979,2.493,2.493,0,0,0-.768-3.439ZM112.786,53.816l-19,19a2.492,2.492,0,1,0,3.524,3.524l19-19a2.492,2.492,0,1,0-3.524-3.525ZM166.515,12.3,157.83,3.611a12.343,12.343,0,0,0-17.439,0l-9.017,9.017A38.432,38.432,0,0,0,102.792,0H38.665A38.682,38.682,0,0,0,.863,30.506a2.492,2.492,0,0,0,1.913,2.961,2.613,2.613,0,0,0,.526.056,2.491,2.491,0,0,0,2.434-1.969,33.7,33.7,0,0,1,32.93-26.57h64.126a33.478,33.478,0,0,1,25.054,11.174l-26.5,26.5H31.852a2.492,2.492,0,1,0,0,4.984H96.36L84.412,59.589H31.852a2.493,2.493,0,1,0,0,4.985H79.428L63.969,80.033A56.027,56.027,0,0,0,53.077,95.386l-7.093,14.735A10.534,10.534,0,0,0,55.406,125.2a10.591,10.591,0,0,0,4.6-1.063l7.149-3.441.005,0,7.582-3.648a56.065,56.065,0,0,0,15.353-10.892l46.38-46.38V102.79a33.831,33.831,0,0,1-.972,8.068,2.492,2.492,0,1,0,4.84,1.189,38.79,38.79,0,0,0,1.116-9.257v-48l6.927-6.927s0,0,0,0,0,0,0,0l18.128-18.127a12.346,12.346,0,0,0,0-17.439ZM57.843,119.651a5.519,5.519,0,0,1-7.367-7.367l2.1-4.37a61.708,61.708,0,0,1,9.634,9.634Zm14.735-7.092-5.767,2.775a66.737,66.737,0,0,0-12.019-12.019l2.775-5.767a51.028,51.028,0,0,1,7.171-11.006l18.846,18.846a51.076,51.076,0,0,1-11.006,7.171Zm14.646-10.581L68.149,82.9l55.875-55.877L143.1,46.1Zm59.4-59.4L127.549,23.5,133.7,17.35l19.077,19.076Zm16.367-16.367L156.3,32.9,137.226,13.825l6.688-6.689a7.356,7.356,0,0,1,10.39,0l8.686,8.686a7.356,7.356,0,0,1,0,10.39ZM31.852,30.71h77.753a2.492,2.492,0,1,0,0-4.984H31.852a2.492,2.492,0,1,0,0,4.984Zm0,0" transform="translate(464 1009.001)" fill="#034ea2"/>
  </g>
</svg>
