<svg xmlns="http://www.w3.org/2000/svg" width="176.463" height="396.836" viewBox="0 0 176.463 396.836">
  <g id="Group_1881" data-name="Group 1881" transform="translate(4093.517 16287.409)">
    <path id="Path_2540" data-name="Path 2540" d="M996.755,385.8c-4.249,12.581-10.765,24.043-24.043,24.043s-23.3-10.786-24.043-24.043c-.956-16.941,10.458-24.114,24.043-24.043C988.76,361.838,1001.8,370.868,996.755,385.8Z" transform="translate(-4938.443 -16649.164)" fill="#2f2e41"/>
    <rect id="Rectangle_579" data-name="Rectangle 579" width="47.454" height="60.108" transform="translate(-3989.774 -16263.904)" fill="#2f2e41"/>
    <path id="Path_2542" data-name="Path 2542" d="M984.942,415.425s-3.588,14.351-1.794,14.351,8.073,7.624,8.073,7.624l4.036,14.8-3.139,10.763-10.763-2.242-13.454-14.8-4.036-4.036-3.588-13.006s4.485-5.382,1.345-9.866S984.942,415.425,984.942,415.425Z" transform="translate(-4939.996 -16656.301)" fill="#fbbebe"/>
    <path id="Path_2543" data-name="Path 2543" d="M858.932,456.4l-9.866-16.145s-10.65-23.565-18.274-15.044,11.547,25.807,11.547,25.807l9.866,13.006Z" transform="translate(-4922.517 -16657.365)" fill="#fbbebe"/>
    <path id="Path_2544" data-name="Path 2544" d="M1006.058,621.692l-7.176,52.471s.9,4.036-8.073,18.836-33.187,47.09-33.187,47.09l-7.176-13.454s8.521-42.605,23.321-51.574l-1.794-64.58Z" transform="translate(-4938.687 -16682.281)" fill="#fbbebe"/>
    <path id="Path_2545" data-name="Path 2545" d="M947.141,738.268l9.866,18.836s-8.073,11.333-4.933,13.576,7.176,22.424-1.345,20.181-15.248-11.212-15.248-12.557,4.933-8.643,2.242-13.127-4.485-5.83-4.485-5.83l-5.37,7.139-2.242-1.345,9.854-14.763s1.345-3.588,6.727-5.83Z" transform="translate(-4935.383 -16699.295)" fill="#2f2e41"/>
    <path id="Path_2546" data-name="Path 2546" d="M969.942,614.247s3.483,49.6-4.141,62.607v64.58l-10.315,1.345s-20.831-34.19-13.207-67.826-7.872-64.474-7.872-64.474Z" transform="translate(-4936.552 -16682.281)" fill="#fbbebe"/>
    <circle id="Ellipse_182" data-name="Ellipse 182" cx="18.836" cy="18.836" r="18.836" transform="translate(-3988.016 -16267.561)" fill="#fbbebe"/>
    <path id="Path_2547" data-name="Path 2547" d="M975.266,458.8,956.43,435.028l-10.764-7.176-4.485,5.83-12.557,3.588s-8.073,1.794-16.594,11.66-23.769,15.7-23.769,15.7S860.9,455.658,860.9,453.864s-13.006,12.109-9.867,17.49,18.1,21.824,40.077,18.684,30.333-6.127,30.333-6.127,4.036,20.63,15.7,24.666,49.781,6.727,49.781,6.727L995,488.4s8.969-11.66-3.139-28.7a112.46,112.46,0,0,0-1.534-15.873c-.506-2.467-1.174-4.451-2.054-5.2-3.139-2.691-19.733-7.176-19.733-7.176s2.691,8.969,4.036,9.418S977.059,456.554,975.266,458.8Z" transform="translate(-4925.386 -16657.965)" fill="#eee"/>
    <path id="Path_2548" data-name="Path 2548" d="M926.418,656.932c22.585-1.57,35.734,2.13,41.6,4.951,1.091.494,5.159,1.529,5.159,1.7,0,1.345,29.513,4.727,40.725,2.036s-10.371-112.524-15.3-117.458-2.274-22.989-2.274-22.989-45.264-6.162-49.3-7.059c-1.8-.4-2.713.273-3.166,1.144a7.755,7.755,0,0,1-3.068,3.1c-9.521,5.485-17.163,43.408-22.917,64.374C911.594,609.6,926.418,656.932,926.418,656.932Z" transform="translate(-4934.144 -16669.967)" fill="#034ea2"/>
    <path id="Path_2549" data-name="Path 2549" d="M970.331,756.893s5.275,19.269,8.521,34.533c0,0,2.242,5.3,10.315,9.333s-1.37,10.739-8.994,10.291-14.8.448-15.7-1.794-3.564-12-3.564-12l-1.472,13.5-4.485.448,1.472-17.534s-3.588-6.727,1.345-17.939l-1.245-17.21S968.986,761.377,970.331,756.893Z" transform="translate(-4939.288 -16701.775)" fill="#2f2e41"/>
    <path id="Path_2550" data-name="Path 2550" d="M972.827,619.453a14.874,14.874,0,0,1,3.059,1.857c.238-4.238,1.61-29.868-.036-29.456Z" transform="translate(-4941.667 -16679.801)" opacity="0.1"/>
    <path id="Path_2551" data-name="Path 2551" d="M959.79,376.182s-.208-1.161-8.367,1.9-13.049,25.636-8.969,38.894c1.644,5.343.307,9.195-1.876,11.89-8.19,10.114-4.966,25.305,6.964,30.506q.505.22,1.031.435l5.1,3.059s-6.5-8.553-3.247-19.493a56.091,56.091,0,0,0,1.012-28.716c-.373-1.6-.8-3.254-1.279-4.939-4.079-14.277-2.1-12.628,12.182-26.906,0,0,8.158,6.119,15.3,9.178s13.257,6.119,8.158,16.317-17.336,19.376-9.178,32.634,9.178,8.158,8.158,13.257h0l-1.02,5.1,6.119-6.119-4.079,8.158s13.257,0,17.337-10.2l2.04,2.04s8.158-14.277-7.139-27.534c0,0-5.1-3.059,2.04-13.257s1.656-32.124-7.522-36.2S959.79,376.182,959.79,376.182Z" transform="translate(-4936.769 -16650.844)" fill="#2f2e41"/>
  </g>
</svg>
