<svg xmlns="http://www.w3.org/2000/svg" width="379.603" height="515.558" viewBox="0 0 379.603 515.558">
  <g id="Group_1929" data-name="Group 1929" transform="translate(4429.316 16430.199)">
    <path id="Path_2626" data-name="Path 2626" d="M667.272,199.052H664.53V123.933a43.477,43.477,0,0,0-43.477-43.477H461.9a43.477,43.477,0,0,0-43.477,43.477V536.042A43.477,43.477,0,0,0,461.9,579.519H621.053a43.477,43.477,0,0,0,43.477-43.477V252.523h2.742Z" transform="translate(-4716.985 -16510.656)" fill="#034ea2" style="mix-blend-mode: hard-light;isolation: isolate"/>
    <path id="Path_2538" data-name="Path 2538" d="M667.272,199.052H664.53V123.933a43.477,43.477,0,0,0-43.477-43.477H461.9a43.477,43.477,0,0,0-43.477,43.477V536.042A43.477,43.477,0,0,0,461.9,579.519H621.053a43.477,43.477,0,0,0,43.477-43.477V252.523h2.742Z" transform="translate(-4726.159 -16501.914)" fill="#034ea2"/>
    <path id="Path_2539" data-name="Path 2539" d="M628.305,96.951H607.531A15.426,15.426,0,0,1,593.249,118.2H502.074a15.425,15.425,0,0,1-14.282-21.251h-19.4a32.468,32.468,0,0,0-32.468,32.468v411.5a32.468,32.468,0,0,0,32.468,32.468H628.305a32.468,32.468,0,0,0,32.468-32.468h0v-411.5a32.468,32.468,0,0,0-32.468-32.468Z" transform="translate(-4731.656 -16507.098)" fill="#fff"/>
    <g id="Group_1882" data-name="Group 1882" transform="translate(-4429.316 -16241.283)">
      <rect id="Rectangle_580" data-name="Rectangle 580" width="15.355" height="11.943" transform="translate(43.398 58.211) rotate(-87.779)" fill="#6c63ff"/>
      <path id="Path_2552" data-name="Path 2552" d="M309.908,482.315s16.526-7.9,16.262-1.077-16.658,11.306-16.658,11.306Z" transform="translate(-212.083 -385.714)" fill="#ffb9b9"/>
      <path id="Path_2553" data-name="Path 2553" d="M265.442,564.04s7.8,19.083,10.678,32.854,7.268,32.722,1.625,46.162-21.688,52.941-21.853,57.2,1.374,8.59-2.035,8.458-21.964-5.974-22.717-8.564,6.33-9.145,6.33-9.145L254.961,636.2l-18.25-35.709-13.164,53.272-2.578,66.487s-12.654-3.905-14.491-.562c0,0-5.669-7.9-6.389-11.346s2.677-69.045,2.677-69.045-11.615-74.721-2.239-74.357S246.63,542.822,265.442,564.04Z" transform="translate(-176.684 -409.74)" fill="#2f2e41"/>
      <path id="Path_2554" data-name="Path 2554" d="M268.059,771.538s8.649,19.116,9.469,20,6.456,9.641,2.194,9.476-14.326-4.824-21.733-11.941-17.173-19.447-16.288-20.266,6.951-3.145,6.951-3.145Z" transform="translate(-190.755 -475.971)" fill="#2f2e41"/>
      <path id="Path_2555" data-name="Path 2555" d="M222.3,789s.522,8.557,2.094,12.033,1.374,8.59-2.888,8.425-15.277-.152-15.277-.152-.654-5.148.231-5.967,4.659-12.211,3.053-14.835S222.3,789,222.3,789Z" transform="translate(-179.551 -482.817)" fill="#2f2e41"/>
      <path id="Path_2556" data-name="Path 2556" d="M214.437,384.75s-9.086,14.16-12.628,17.438,6.423,10.493,6.423,10.493l17.834,2.4s-.224-16.229.694-17.9S214.437,384.75,214.437,384.75Z" transform="translate(-177.997 -356.262)" fill="#ffb9b9"/>
      <path id="Path_2557" data-name="Path 2557" d="M227.265,409.982s-3.674,6.687-7.084,6.555-21.046-7.646-21.8-10.236-5.842,18.554-5.842,18.554L235.7,500.8l10.526-7.275-5.1-44.589-4.189-24.066Z" transform="translate(-175.324 -362.964)" fill="#eee"/>
      <path id="Path_2558" data-name="Path 2558" d="M190.613,475.6a23.881,23.881,0,0,1,2.647,11.2c-.007.171-.013.341-.028.511-.408,7.889-3.315,17.013-4.357,23.649-.757,4.76-.541,8.234,2.244,9.051,6.753,1.969-.985,3.377,25.142,12.073s30.686,1.19,30.752-.515-3.7-14.656-2.815-15.475,12.389,10.725,15.865,9.152.4-10.229.4-10.229-7.83-18.231-7.665-22.493-11.86-24.363-11.86-24.363l-8.179-53.246s-3.145-6.951-7.374-7.969a10.476,10.476,0,0,0-7.738,1.407l7.077,15.641,7.466,27.607-1.249,10.2s-8.682-18.264-14.385-25.315-17.86-23.742-17.86-23.742-2.838-9.577-.7-12.44-8.938-3.3-13.663,8.468c-2.5,6.237-6.57,15.538-9.117,24.2-2.27,7.672-3.342,14.844-1.093,18.944C177.562,458.172,186.206,466.4,190.613,475.6Z" transform="translate(-169.146 -360.613)" fill="#034ea2"/>
      <path id="Path_2559" data-name="Path 2559" d="M174.125,466.687c3.437,6.263,12.081,14.494,16.488,23.689,1.151-4.147,2.555-8.438,2.555-8.438s5.386-28.816-10.545-36.264a10.663,10.663,0,0,0-7.4,2.069C172.949,455.416,171.877,462.588,174.125,466.687Z" transform="translate(-169.146 -375.391)" opacity="0.1"/>
      <path id="Path_2560" data-name="Path 2560" d="M266.316,473.692l13.506,3.938,18.753.727,1.929,16.295-30.819,2.22S261.987,475.232,266.316,473.692Z" transform="translate(-198.093 -384.213)" fill="#034ea2"/>
      <path id="Path_2561" data-name="Path 2561" d="M231.969,553.589s18.068,3,13.944,8.435-20.131-.279-20.131-.279Z" transform="translate(-185.77 -409.32)" fill="#ffb9b9"/>
      <path id="Path_2562" data-name="Path 2562" d="M200.561,527.964c-.408,7.889-3.315,17.013-4.357,23.649,5.756,5.448,11.23,10.253,13.292,10.333,4.262.165,11.114-.423,13.638.529s4-15.211,4-15.211-1.506-5.181-8.227-8A93.587,93.587,0,0,1,200.561,527.964Z" transform="translate(-176.475 -401.27)" opacity="0.1"/>
      <path id="Path_2563" data-name="Path 2563" d="M181.108,438.213s-14.425-2.267-13.645,21.667-1.521,39.21,4.281,43.7,24.646,24.859,28.908,25.024,11.114-.423,13.638.529,4-15.211,4-15.211-1.506-5.181-8.227-8-22.552-12.826-22.42-16.236,4-15.211,4-15.211S197.039,445.66,181.108,438.213Z" transform="translate(-167.433 -373.044)" fill="#034ea2"/>
      <ellipse id="Ellipse_183" data-name="Ellipse 183" cx="18.767" cy="18.767" rx="18.767" ry="18.767" transform="translate(30.393 11.923)" fill="#ffb9b9"/>
      <path id="Path_2564" data-name="Path 2564" d="M241.936,347a3.624,3.624,0,0,0,1.578.792,1.126,1.126,0,0,0,1.3-.9,4.679,4.679,0,0,0,1.79,2.3c.877.457,2.232.074,2.359-.907a4.137,4.137,0,0,0,.952,2.01,1.426,1.426,0,0,0,2.005.067,51.538,51.538,0,0,0-.267,6.385c-.121,2.129-.688,4.387-2.3,5.787-2.346,2.042-5.875,1.538-8.961,1.151a2.72,2.72,0,0,0-1.4.077c-1.156.492-1.1,2.1-1.119,3.357a9.328,9.328,0,0,1-8.168,8.858,4.676,4.676,0,0,1-3.475-.848c-.876-.743-1.324-1.953-2.328-2.511-1.633-.908-3.614.416-4.809,1.853s-2.371,3.205-4.221,3.468c-2.447.348-4.31-2.146-5.225-4.442a25.892,25.892,0,0,1,.515-20.119C215.274,342.232,232.725,340.471,241.936,347Z" transform="translate(-180.139 -343.207)" fill="#2f2e41"/>
    </g>
    <path id="Path_2565" data-name="Path 2565" d="M336.421,465.462c6.146-6.922,16.447-6.405,24.4-3.3,9.843,3.841,16.965,12.384,24.913,18.979a54.157,54.157,0,0,0,13.619,8.551,48.25,48.25,0,0,0,15.483,3.6A46.737,46.737,0,0,0,444.11,485.4,48.524,48.524,0,0,0,461.965,463c.43-1.11.812-2.237,1.154-3.376a1.029,1.029,0,0,0-1.984-.547,45.968,45.968,0,0,1-16.2,23.213,44.826,44.826,0,0,1-28.558,9.019,46.554,46.554,0,0,1-15.438-3.177,50.445,50.445,0,0,1-13.639-8.352c-7.98-6.6-15.075-15-24.79-19.131-7.878-3.351-18.04-4.373-25.208,1.178a17.18,17.18,0,0,0-2.336,2.185c-.876.987.573,2.447,1.455,1.455Z" transform="translate(-4649.315 -16620.531)" fill="#2f2e41"/>
    <g id="Group_1844" data-name="Group 1844" transform="translate(-4246.621 -16103.775)">
      <path id="Path_2607" data-name="Path 2607" d="M341.682,478.062H201.336a2.314,2.314,0,0,1-2.312-2.312V433.812a2.314,2.314,0,0,1,2.312-2.312H341.682a2.314,2.314,0,0,1,2.312,2.312V475.75a2.314,2.314,0,0,1-2.312,2.312Zm-140.347-45.9a1.653,1.653,0,0,0-1.651,1.651V475.75a1.653,1.653,0,0,0,1.651,1.651H341.682a1.653,1.653,0,0,0,1.651-1.651V433.812a1.653,1.653,0,0,0-1.651-1.651Z" transform="translate(-199.024 -431.5)" fill="#3f3d56"/>
      <path id="Path_2612" data-name="Path 2612" d="M372.732,601.142a1.3,1.3,0,0,1-.764-.253l-1.841-1.338a.892.892,0,0,0-1.053,0l-1.841,1.338a1.3,1.3,0,0,1-2-1.453l.7-2.165a.893.893,0,0,0-.325-1l-1.841-1.338a1.3,1.3,0,0,1,.764-2.352h2.276a.893.893,0,0,0,.852-.619l.7-2.165a1.3,1.3,0,0,1,2.473,0l.7,2.165a.893.893,0,0,0,.852.619h2.276a1.3,1.3,0,0,1,.764,2.352l-1.841,1.338a.893.893,0,0,0-.325,1l.7,2.165a1.281,1.281,0,0,1-.472,1.453A1.3,1.3,0,0,1,372.732,601.142Z" transform="translate(-309.006 -536.922)" fill="#ebbf47"/>
      <path id="Path_2613" data-name="Path 2613" d="M429.24,601.142a1.3,1.3,0,0,1-.764-.253l-1.842-1.338a.892.892,0,0,0-1.053,0l-1.841,1.338a1.3,1.3,0,0,1-2-1.453l.7-2.165a.893.893,0,0,0-.325-1l-1.841-1.338a1.3,1.3,0,0,1,.764-2.352h2.276a.893.893,0,0,0,.852-.619l.7-2.165a1.3,1.3,0,0,1,2.473,0l.7,2.165a.893.893,0,0,0,.852.619h2.276a1.3,1.3,0,0,1,.764,2.352L430.1,596.27a.893.893,0,0,0-.325,1l.7,2.165a1.28,1.28,0,0,1-.472,1.453,1.3,1.3,0,0,1-.764.253Z" transform="translate(-346.854 -536.922)" fill="#ebbf47"/>
      <path id="Path_2616" data-name="Path 2616" d="M485.749,601.142a1.3,1.3,0,0,1-.764-.253l-1.841-1.338a.894.894,0,0,0-1.053,0l-1.841,1.338a1.3,1.3,0,0,1-2-1.453l.7-2.165a.893.893,0,0,0-.325-1l-1.841-1.338a1.3,1.3,0,0,1,.764-2.352h2.276a.893.893,0,0,0,.852-.619l.7-2.165a1.3,1.3,0,0,1,2.473,0l.7,2.165a.893.893,0,0,0,.852.619h2.276a1.3,1.3,0,0,1,.764,2.352l-1.841,1.338a.893.893,0,0,0-.325,1l.7,2.165a1.28,1.28,0,0,1-.472,1.453,1.3,1.3,0,0,1-.764.253Z" transform="translate(-384.702 -536.922)" fill="#ebbf47"/>
      <path id="Path_2617" data-name="Path 2617" d="M542.257,601.142a1.3,1.3,0,0,1-.764-.253l-1.841-1.338a.892.892,0,0,0-1.052,0l-1.841,1.338a1.3,1.3,0,0,1-2-1.453l.7-2.165a.893.893,0,0,0-.325-1l-1.841-1.338a1.3,1.3,0,0,1,.764-2.352h2.276a.893.893,0,0,0,.852-.619l.7-2.165a1.3,1.3,0,0,1,2.473,0l.7,2.165a.893.893,0,0,0,.852.619h2.276a1.3,1.3,0,0,1,.764,2.352l-1.841,1.338a.893.893,0,0,0-.325,1l.7,2.165a1.281,1.281,0,0,1-.472,1.453A1.3,1.3,0,0,1,542.257,601.142Z" transform="translate(-422.549 -536.922)" fill="#ebbf47"/>
      <path id="Path_2618" data-name="Path 2618" d="M592.243,601.012a1.425,1.425,0,0,1-.839-.278,1.407,1.407,0,0,1-.519-1.6l.7-2.165a.765.765,0,0,0-.279-.858l-1.842-1.338a1.428,1.428,0,0,1,.839-2.583h2.276a.765.765,0,0,0,.73-.53l.7-2.165a1.428,1.428,0,0,1,2.716,0l.7,2.165a.766.766,0,0,0,.73.53h2.276a1.428,1.428,0,0,1,.839,2.583l-1.841,1.338a.765.765,0,0,0-.279.858l.7,2.165a1.428,1.428,0,0,1-2.2,1.6l-1.841-1.338a.765.765,0,0,0-.9,0l-1.841,1.338A1.424,1.424,0,0,1,592.243,601.012Zm3.132-2.424a1.425,1.425,0,0,1,.839.273l1.842,1.338a.767.767,0,0,0,1.181-.858l-.7-2.165a1.424,1.424,0,0,1,.519-1.6l1.841-1.338a.767.767,0,0,0-.451-1.388h-2.276a1.424,1.424,0,0,1-1.358-.987l-.7-2.165a.767.767,0,0,0-1.46,0l-.7,2.165a1.424,1.424,0,0,1-1.358.987h-2.276a.767.767,0,0,0-.451,1.388l1.842,1.338a1.424,1.424,0,0,1,.519,1.6l-.7,2.165a.767.767,0,0,0,1.181.858l1.842-1.338a1.425,1.425,0,0,1,.839-.273Z" transform="translate(-460.138 -536.662)" fill="#3f3d56"/>
      <path id="Path_2608" data-name="Path 2608" d="M249.67,461.5a2.146,2.146,0,1,0,0,4.293H358.315a2.146,2.146,0,1,0,0-4.293Z" transform="translate(-231.508 -451.593)" fill="#ccc"/>
      <path id="Path_2609" data-name="Path 2609" d="M249.67,495.5a2.146,2.146,0,1,0,0,4.293H358.315a2.146,2.146,0,1,0,0-4.293Z" transform="translate(-231.508 -474.365)" fill="#ccc"/>
      <path id="Path_2614" data-name="Path 2614" d="M249.67,529.5a2.146,2.146,0,0,0,0,4.293H358.315a2.146,2.146,0,0,0,0-4.293Z" transform="translate(-231.508 -497.138)" fill="#ccc"/>
      <path id="Path_2610" data-name="Path 2610" d="M249.67,461.5a2.146,2.146,0,1,0,0,4.293H358.315a2.146,2.146,0,1,0,0-4.293Z" transform="translate(-231.508 -451.593)" fill="#ccc"/>
      <path id="Path_2611" data-name="Path 2611" d="M249.67,495.5a2.146,2.146,0,1,0,0,4.293H358.315a2.146,2.146,0,1,0,0-4.293Z" transform="translate(-231.508 -474.365)" fill="#ccc"/>
      <path id="Path_2615" data-name="Path 2615" d="M249.67,529.5a2.146,2.146,0,0,0,0,4.293H358.315a2.146,2.146,0,0,0,0-4.293Z" transform="translate(-231.508 -497.138)" fill="#ccc"/>
    </g>
    <g id="Group_1845" data-name="Group 1845" transform="translate(-4286.555 -16236.275)">
      <path id="Path_2607-2" data-name="Path 2607" d="M201.336,478.062H341.682a2.314,2.314,0,0,0,2.312-2.312V433.812a2.314,2.314,0,0,0-2.312-2.312H201.336a2.314,2.314,0,0,0-2.312,2.312V475.75a2.314,2.314,0,0,0,2.312,2.312Zm140.346-45.9a1.653,1.653,0,0,1,1.651,1.651V475.75a1.653,1.653,0,0,1-1.651,1.651H201.336a1.653,1.653,0,0,1-1.651-1.651V433.812a1.653,1.653,0,0,1,1.651-1.651Z" transform="translate(-199.024 -431.5)" fill="#3f3d56"/>
      <path id="Path_2612-2" data-name="Path 2612" d="M366.468,601.142a1.3,1.3,0,0,0,.764-.253l1.841-1.338a.892.892,0,0,1,1.053,0l1.841,1.338a1.3,1.3,0,0,0,2-1.453l-.7-2.165a.893.893,0,0,1,.325-1l1.841-1.338a1.3,1.3,0,0,0-.764-2.352h-2.276a.893.893,0,0,1-.852-.619l-.7-2.165a1.3,1.3,0,0,0-2.473,0l-.7,2.165a.893.893,0,0,1-.852.619h-2.276a1.3,1.3,0,0,0-.764,2.352l1.841,1.338a.893.893,0,0,1,.325,1l-.7,2.165a1.281,1.281,0,0,0,.472,1.453A1.3,1.3,0,0,0,366.468,601.142Z" transform="translate(-285.225 -536.922)" fill="#ebbf47"/>
      <path id="Path_2613-2" data-name="Path 2613" d="M422.976,601.142a1.3,1.3,0,0,0,.764-.253l1.842-1.338a.892.892,0,0,1,1.053,0l1.841,1.338a1.3,1.3,0,0,0,2-1.453l-.7-2.165a.893.893,0,0,1,.325-1l1.841-1.338a1.3,1.3,0,0,0-.764-2.352H428.9a.893.893,0,0,1-.852-.619l-.7-2.165a1.3,1.3,0,0,0-2.473,0l-.7,2.165a.893.893,0,0,1-.852.619h-2.276a1.3,1.3,0,0,0-.764,2.352l1.841,1.338a.893.893,0,0,1,.325,1l-.7,2.165a1.28,1.28,0,0,0,.472,1.453,1.3,1.3,0,0,0,.764.253Z" transform="translate(-360.393 -536.922)" fill="#ebbf47"/>
      <path id="Path_2616-2" data-name="Path 2616" d="M479.485,601.142a1.3,1.3,0,0,0,.764-.253l1.841-1.338a.894.894,0,0,1,1.053,0l1.841,1.338a1.3,1.3,0,0,0,2-1.453l-.7-2.165a.893.893,0,0,1,.325-1l1.842-1.338a1.3,1.3,0,0,0-.764-2.352h-2.276a.893.893,0,0,1-.852-.619l-.7-2.165a1.3,1.3,0,0,0-2.473,0l-.7,2.165a.893.893,0,0,1-.852.619H477.55a1.3,1.3,0,0,0-.764,2.352l1.841,1.338a.893.893,0,0,1,.325,1l-.7,2.165a1.28,1.28,0,0,0,.472,1.453,1.3,1.3,0,0,0,.764.253Z" transform="translate(-435.563 -536.922)" fill="#ebbf47"/>
      <path id="Path_2617-2" data-name="Path 2617" d="M535.993,601.142a1.3,1.3,0,0,0,.764-.253l1.841-1.338a.892.892,0,0,1,1.053,0l1.841,1.338a1.3,1.3,0,0,0,2-1.453l-.7-2.165a.893.893,0,0,1,.325-1l1.841-1.338a1.3,1.3,0,0,0-.764-2.352h-2.276a.893.893,0,0,1-.852-.619l-.7-2.165a1.3,1.3,0,0,0-2.473,0l-.7,2.165a.893.893,0,0,1-.852.619h-2.276a1.3,1.3,0,0,0-.764,2.352l1.841,1.338a.893.893,0,0,1,.325,1l-.7,2.165a1.281,1.281,0,0,0,.472,1.453A1.3,1.3,0,0,0,535.993,601.142Z" transform="translate(-510.731 -536.922)" fill="#ebbf47"/>
      <path id="Path_2724" data-name="Path 2724" d="M535.993,601.142a1.3,1.3,0,0,0,.764-.253l1.841-1.338a.892.892,0,0,1,1.053,0l1.841,1.338a1.3,1.3,0,0,0,2-1.453l-.7-2.165a.893.893,0,0,1,.325-1l1.841-1.338a1.3,1.3,0,0,0-.764-2.352h-2.276a.893.893,0,0,1-.852-.619l-.7-2.165a1.3,1.3,0,0,0-2.473,0l-.7,2.165a.893.893,0,0,1-.852.619h-2.276a1.3,1.3,0,0,0-.764,2.352l1.841,1.338a.893.893,0,0,1,.325,1l-.7,2.165a1.281,1.281,0,0,0,.472,1.453A1.3,1.3,0,0,0,535.993,601.142Z" transform="translate(-529.392 -536.793)" fill="#ebbf47"/>
      <path id="Path_2608-2" data-name="Path 2608" d="M358.315,461.5a2.146,2.146,0,1,1,0,4.293H249.67a2.146,2.146,0,1,1,0-4.293Z" transform="translate(-231.508 -451.593)" fill="#ccc"/>
      <path id="Path_2609-2" data-name="Path 2609" d="M358.315,495.5a2.146,2.146,0,1,1,0,4.293H249.67a2.146,2.146,0,1,1,0-4.293Z" transform="translate(-231.508 -474.365)" fill="#ccc"/>
      <path id="Path_2614-2" data-name="Path 2614" d="M358.315,529.5a2.146,2.146,0,0,1,0,4.293H249.67a2.146,2.146,0,0,1,0-4.293Z" transform="translate(-231.508 -497.138)" fill="#ccc"/>
      <path id="Path_2610-2" data-name="Path 2610" d="M358.315,461.5a2.146,2.146,0,1,1,0,4.293H249.67a2.146,2.146,0,1,1,0-4.293Z" transform="translate(-231.508 -451.593)" fill="#ccc"/>
      <path id="Path_2611-2" data-name="Path 2611" d="M358.315,495.5a2.146,2.146,0,1,1,0,4.293H249.67a2.146,2.146,0,1,1,0-4.293Z" transform="translate(-231.508 -474.365)" fill="#ccc"/>
      <path id="Path_2615-2" data-name="Path 2615" d="M358.315,529.5a2.146,2.146,0,0,1,0,4.293H249.67a2.146,2.146,0,0,1,0-4.293Z" transform="translate(-231.508 -497.138)" fill="#ccc"/>
    </g>
  </g>
</svg>
