<svg xmlns="http://www.w3.org/2000/svg" width="22.393" height="21.415" viewBox="0 0 22.393 21.415">
  <path id="star" d="M12.278,1.719,14.8,6.837a1.205,1.205,0,0,0,.908.66l5.648.821a1.206,1.206,0,0,1,.668,2.057l-4.087,3.983a1.206,1.206,0,0,0-.347,1.067l.965,5.625a1.206,1.206,0,0,1-1.75,1.271l-5.051-2.655a1.207,1.207,0,0,0-1.122,0L5.585,22.32a1.206,1.206,0,0,1-1.75-1.271L4.8,15.424a1.206,1.206,0,0,0-.347-1.067L.366,10.373a1.206,1.206,0,0,1,.668-2.057L6.682,7.5a1.205,1.205,0,0,0,.908-.66l2.526-5.118A1.205,1.205,0,0,1,12.278,1.719Z" transform="translate(-0.001 -1.047)" fill="#ffab1a"/>
</svg>
