<?xml version="1.0" encoding="utf-8"?>
<!-- Generator: Adobe Illustrator 24.3.0, SVG Export Plug-In . SVG Version: 6.00 Build 0)  -->
<svg version="1.1" id="Layer_1" xmlns="http://www.w3.org/2000/svg" xmlns:xlink="http://www.w3.org/1999/xlink" x="0px" y="0px"
	 viewBox="0 0 242.7 54.4" style="enable-background:new 0 0 242.7 54.4;" xml:space="preserve">
<style type="text/css">
	.st0{fill:#034EA2;}
	.st1{enable-background:new    ;}
	.st2{fill:#FFFFFF;}
</style>
<image style="display:none;overflow:visible;enable-background:new    ;" width="500" height="500" xlink:href="9D829CF8.jpeg"  transform="matrix(1 0 0 1 -9341.7441 -8136.6543)">
</image>
<path id="Path_2722" class="st0" d="M230.3,54c-1.1,0-2.1-0.4-3-1.1c0,0-0.1-0.1-0.1-0.1l-8.6-8h-32.5c-3,0.1-5.5-2.3-5.6-5.3V9.8
	c0.1-3,2.6-5.4,5.6-5.3h51c3-0.1,5.5,2.3,5.6,5.3v29.8c-0.1,3-2.6,5.4-5.6,5.3h-2.2v4.8c0,1.8-1.1,3.3-2.7,4
	C231.6,53.9,230.9,54,230.3,54L230.3,54z"/>
<g class="st1">
	<path class="st2" d="M197.7,31.1l-4.6-6.6v6.6h-3.3V16.8h3.3V23l4.4-6.2h3.7l-4.8,7l5,7.3H197.7z"/>
	<path class="st2" d="M211.6,27.9v3.1h-9V16.8h8.9v3.1h-5.6v2.4h5.1v3.1h-5.1v2.5L211.6,27.9L211.6,27.9z"/>
	<path class="st2" d="M222.4,27.9v3.1h-9V16.8h8.9v3.1h-5.6v2.4h5.1v3.1h-5.1v2.5L222.4,27.9L222.4,27.9z"/>
	<path class="st2" d="M234.7,21.6c0,2.7-2.2,4.9-5,4.9h-2.1v4.5h-3.3V16.8h5.4C232.5,16.8,234.7,18.9,234.7,21.6z M231.4,21.6
		c0-1-0.7-1.8-1.7-1.8h-2.1v3.7h2.1C230.7,23.5,231.4,22.7,231.4,21.6z"/>
</g>
<g class="st1">
	<path d="M14.4,30.1h-3.7v11.2H2.9v-34h13.6c6.5,0,11.6,5.2,11.6,11.6c0,4.2-2.5,8-6.3,9.9l7.2,12.5h-8.4L14.4,30.1z M10.7,23.3h5.8
		c2.1,0,3.9-1.9,3.9-4.4s-1.8-4.4-3.9-4.4h-5.8V23.3z"/>
	<path d="M54.1,33.8v7.5H32.8v-34h21.1v7.5H40.5v5.6h12.1v7.4H40.5v6H54.1z"/>
	<path d="M55.6,7.3h8.5l7.5,25l7.5-25h8.5l-11,34h-9.9L55.6,7.3z"/>
	<path d="M98.3,7.3v34h-7.8v-34H98.3z"/>
	<path d="M125.5,33.8v7.5h-21.4v-34h21.1v7.5h-13.3v5.6H124v7.4h-12.1v6H125.5z"/>
	<path d="M127.4,7.3h8.1l5.9,23.8L148,7.3h6.3l6.6,23.8l5.9-23.8h8.1l-9.4,34h-8.8l-5.5-20l-5.5,20h-8.8L127.4,7.3z"/>
</g>
</svg>
